<svg xmlns="http://www.w3.org/2000/svg" xmlns:xlink="http://www.w3.org/1999/xlink" xml:space="preserve" width="300" height="300" viewBox="0 0 700 700"><metadata xmlns:fl="https://football-logos.cc/england/brighton">dl1_f9f7881bf0b39615cfde86f5a92335b67ca2743275c5b63dd629157471e25eac</metadata><!-- Source: https://football-logos.cc --><defs data-source="https://football-logos.cc"><clipPath id="b"><use xlink:href="#a" width="100%" height="100%" overflow="visible" style="overflow:visible"></use></clipPath><path id="a" d="M.725-6.294H71.59V60.32H.725z"></path></defs><path d="M2.388 28.659c0 14.427 11.696 26.125 26.124 26.125s26.123-11.698 26.123-26.125c0-14.428-11.697-26.123-26.123-26.123-14.428 0-26.124 11.696-26.124 26.123" style="fill:#005daa" transform="matrix(13.3979 0 0 13.39764 -31.994 -33.976)"></path><path d="M28.512 53.778c-13.874 0-25.119-11.246-25.119-25.12 0-13.872 11.245-25.119 25.119-25.119s25.119 11.247 25.119 25.119c0 13.874-11.245 25.12-25.119 25.12" style="fill:#fff" transform="matrix(13.3979 0 0 13.39764 -31.994 -33.976)"></path><path d="M51.912 25.603c-.321-.172-.814-.4-1.521-.697-.728-.304-2.232-.784-3.791-1.2-2.174-7.956-9.446-13.803-18.088-13.803-9.681 0-17.646 7.336-18.646 16.75-.954.142-1.865.253-2.656.336-1.566.163-2.653.221-2.655.222a.12.12 0 0 0-.112.105l-.001.02c-.004.086.057.445.65.747.592.308 1.713.587 3.885.589q.368-.002.779-.013c0 10.358 8.396 18.755 18.756 18.755 10.357 0 18.755-8.397 18.755-18.755a19 19 0 0 0-.321-3.446c1.928.426 4.354.977 5.136.979a.7.7 0 0 0 .206-.024c.051-.011.126-.054.129-.142-.031-.17-.188-.237-.505-.423M34.857 6.012a.8.8 0 0 0-.337.06.7.7 0 0 0-.399.451.8.8 0 0 0-.039.223.6.6 0 0 0 .016.156q.036.171.115.36a1.7 1.7 0 0 0-.506.22.8.8 0 0 0-.312.418 1.2 1.2 0 0 0-.063.348q-.005.234.102.434.184.334.693.498a1.3 1.3 0 0 0 .383.076 1 1 0 0 0 .1-.002c.13-.014.263-.049.398-.096l.006-.002.13.326.764.254-.351-.845a1.3 1.3 0 0 0 .357-.327q.154-.207.272-.511l.007-.018-.564-.185-.008.015q-.12.324-.306.461l-.305-.736q.057-.015.129-.04l.127-.04a1 1 0 0 0 .314-.164.57.57 0 0 0 .186-.274.8.8 0 0 0 .043-.24.7.7 0 0 0-.09-.36c-.101-.186-.278-.32-.52-.4a1.1 1.1 0 0 0-.342-.06m.084.552q.045 0 .094.016.11.036.152.123a.23.23 0 0 1 .01.188.2.2 0 0 1-.086.111.5.5 0 0 1-.162.072.4.4 0 0 1-.076.026q-.035.01-.064.015a2 2 0 0 1-.088-.23.3.3 0 0 1-.012-.086.2.2 0 0 1 .012-.065.23.23 0 0 1 .119-.146.2.2 0 0 1 .101-.024m-.523 1.172.367.883a.7.7 0 0 1-.238.059H34.5a.7.7 0 0 1-.203-.037.48.48 0 0 1-.283-.22.4.4 0 0 1-.057-.21.5.5 0 0 1 .022-.129.42.42 0 0 1 .154-.219 1 1 0 0 1 .285-.127m-5.896-1.295 1.259 1.922h.593V5.129h-.669v1.916l-1.259-1.916h-.593v3.234h.669zm16.39 10.195 1.186 1.803.496-.325-.828-1.259.619-.407.704 1.072.495-.325-.704-1.072.597-.392.827 1.258.495-.326-1.194-1.818-2.702 1.775zM43.02 10.44q-.046 0-.094.003a.93.93 0 0 0-.522.196 4.5 4.5 0 0 0-.562.574q-.341.4-.477.64a.93.93 0 0 0-.111.55q.02.25.13.46.11.212.317.387c.14.12.28.204.432.254a1.2 1.2 0 0 0 .474.055.94.94 0 0 0 .53-.194q.215-.173.556-.572.346-.405.48-.643a.92.92 0 0 0 .106-.55 1.22 1.22 0 0 0-.443-.848 1.3 1.3 0 0 0-.432-.252 1.2 1.2 0 0 0-.384-.06m.087.624q.07 0 .145.024.105.035.2.113a.5.5 0 0 1 .19.381v.022a.44.44 0 0 1-.078.26 1.5 1.5 0 0 1-.134.197 9 9 0 0 1-.244.298c-.101.116-.186.215-.254.286a2 2 0 0 1-.174.166.48.48 0 0 1-.338.125.5.5 0 0 1-.334-.133.6.6 0 0 1-.147-.182.5.5 0 0 1-.048-.201v-.024q0-.06.015-.11a.7.7 0 0 1 .065-.147q.046-.081.134-.196.091-.114.247-.297c.105-.122.19-.222.255-.29q.1-.107.176-.165a.6.6 0 0 1 .135-.086.4.4 0 0 1 .125-.035.3.3 0 0 1 .064-.006m-3.68-1.103.905.559-.7 1.139.014.01.554.341 1.694-2.753-.568-.35-.686 1.112-.907-.558.688-1.113-.57-.351-1.695 2.752.57.353zm4.488 5.458.013-.006 3.132-1.316-.46-.524-1.956.872 1.109-1.831-.459-.521-1.708 2.95zM25.64 5.266q-.09 0-.185.011a1.2 1.2 0 0 0-.842.463.94.94 0 0 0-.207.518 1 1 0 0 0-.006.15q0 .255.051.653.063.52.152.785.09.265.329.453a1.2 1.2 0 0 0 .927.244q.273-.034.479-.15t.361-.315a.95.95 0 0 0 .213-.521q.004-.061.006-.135a7 7 0 0 0-.05-.662 5 5 0 0 0-.151-.787.93.93 0 0 0-.336-.452 1.3 1.3 0 0 0-.428-.216q-.15-.04-.312-.04m-.029.595a.47.47 0 0 1 .416.225.6.6 0 0 1 .067.143q.028.087.05.232.028.147.057.383.028.231.04.38.007.095.007.169 0 .04-.002.074a1 1 0 0 1-.025.154.4.4 0 0 1-.065.121.5.5 0 0 1-.369.211.6.6 0 0 1-.23-.014.5.5 0 0 1-.184-.1.4.4 0 0 1-.088-.099 1 1 0 0 1-.062-.146 1.5 1.5 0 0 1-.055-.235q-.025-.14-.055-.38a8 8 0 0 1-.04-.387 2 2 0 0 1-.009-.164l.004-.074a.7.7 0 0 1 .028-.159.4.4 0 0 1 .058-.117.4.4 0 0 1 .153-.139.6.6 0 0 1 .222-.072q.04-.004.082-.006M12.06 12.268a1 1 0 0 0-.388.105q-.19.098-.358.28l-.869.95 2.387 2.184.451-.492-.94-.863.288-.315 1.367.395.01-.01.514-.56-1.514-.403a.93.93 0 0 0 .05-.508.85.85 0 0 0-.286-.496 1 1 0 0 0-.333-.209.9.9 0 0 0-.328-.058zm-.037.652h.038c.096 0 .18.033.261.11q.135.12.135.286a.46.46 0 0 1-.135.313l-.388.426-.6-.547.393-.428a.46.46 0 0 1 .296-.16m-2.291 2.185a1 1 0 0 0-.2.028c-.239.06-.443.228-.618.494l-.72 1.105 2.71 1.77.752-1.154a1.1 1.1 0 0 0 .203-.616 1 1 0 0 0-.01-.134q-.057-.369-.427-.612a.8.8 0 0 0-.428-.144q-.023 0-.043.002a.85.85 0 0 0-.363.105v-.043a.8.8 0 0 0-.063-.295.7.7 0 0 0-.287-.34.9.9 0 0 0-.506-.165m-.025.68q.095 0 .19.063a.32.32 0 0 1 .164.277.46.46 0 0 1-.086.25l-.33.504-.586-.383.328-.506a.4.4 0 0 1 .244-.193.3.3 0 0 1 .076-.012m1.115.678q.106 0 .21.068a.37.37 0 0 1 .179.305.43.43 0 0 1-.084.24l-.352.541-.63-.41.353-.539q.106-.168.25-.197h.002a.4.4 0 0 1 .072-.008m4.278-3.027.494-.423-2.103-2.458-.509.434 2.104 2.46zm7.035-6.827.703 2.546.644-.175-.702-2.547.818-.226-.16-.57-2.277.627.156.571zm-6.703 4.465q.29.438.487.635a1 1 0 0 0 .495.259q.124.024.243.024.365 0 .693-.219a1.23 1.23 0 0 0 .578-1.008 1 1 0 0 0-.044-.282 2.2 2.2 0 0 0-.269-.528l-.265-.394-1.035.688.31.464.478-.318.054.079q.067.102.103.215.021.075.022.148a.54.54 0 0 1-.259.443.54.54 0 0 1-.296.098.5.5 0 0 1-.243-.065.6.6 0 0 1-.121-.105 2 2 0 0 1-.153-.185 6 6 0 0 1-.22-.319c-.091-.133-.16-.245-.211-.327a1.4 1.4 0 0 1-.11-.212.6.6 0 0 1-.051-.216q0-.033.005-.066a.5.5 0 0 1 .235-.355.6.6 0 0 1 .274-.108q.03-.005.068-.004.112 0 .268.032l.016.002.131-.625-.017-.003a2 2 0 0 0-.341-.037q-.112 0-.213.019a1.5 1.5 0 0 0-.516.23 1.21 1.21 0 0 0-.563.997q0 .18.068.346c.071.172.201.405.399.697m4.297-.698-.55-1.221.969-.436.553 1.221.017-.007.592-.268-1.331-2.949-.611.275.54 1.191-.97.438-.539-1.192-.609.275 1.332 2.95zm3.774 37.99-.656-.159-.77 3.222.018.005 2.085.498.141-.591-1.445-.344zm12.416-.758.663 1.847-1.858-1.421-.563.203 1.112 3.117.638-.228-.662-1.853 1.856 1.427.011-.005.555-.199-1.114-3.116zm-15.343-.229-2.37 2.608.651.268.403-.463 1.052.432-.04.607.013.008.643.262.133-3.526zm-.139 1.07-.074 1.175-.709-.29zm11.899.175q-.123 0-.254.023-.27.047-.473.176a1.2 1.2 0 0 0-.35.338.96.96 0 0 0-.18.541v.035q-.001.281.089.782.091.532.195.796a1 1 0 0 0 .356.446c.139.098.29.165.445.2q.12.025.248.024.125 0 .256-.021.272-.05.473-.178c.132-.085.25-.2.345-.338a.97.97 0 0 0 .19-.545v-.027c0-.184-.034-.447-.092-.785a5 5 0 0 0-.193-.797.94.94 0 0 0-.364-.443 1.2 1.2 0 0 0-.691-.227m-.033.61a.5.5 0 0 1 .304.107.5.5 0 0 1 .17.244q.038.088.07.236a11 11 0 0 1 .135.778q.02.137.02.228v.016h-.004a.54.54 0 0 1-.074.287.5.5 0 0 1-.361.236q-.059.009-.112.01a.5.5 0 0 1-.12-.014.4.4 0 0 1-.19-.091.4.4 0 0 1-.094-.098.6.6 0 0 1-.072-.149 2 2 0 0 1-.069-.236 11 11 0 0 1-.137-.78 2 2 0 0 1-.017-.23v-.013a1 1 0 0 1 .02-.164.4.4 0 0 1 .052-.118.45.45 0 0 1 .147-.156.6.6 0 0 1 .216-.084q.06-.009.116-.01m-3.13-.254.158 3.307.019-.001.656-.033-.159-3.305zm-3.433-.15-.263 3.303 1.386.11q.063.004.121.003h.002q.374.001.633-.197c.201-.153.313-.385.336-.684.003-.035.006-.063.006-.094a.74.74 0 0 0-.103-.4.9.9 0 0 0-.272-.273.8.8 0 0 0 .272-.22.7.7 0 0 0 .164-.425l.002-.101a.86.86 0 0 0-.22-.604q-.251-.273-.736-.309zm.625.66.608.047q.194.017.29.121a.33.33 0 0 1 .087.233l-.002.037a.34.34 0 0 1-.125.252.4.4 0 0 1-.254.078l-.053-.002-.605-.051zm-.105 1.326.648.051q.2.015.295.13a.37.37 0 0 1 .082.284.4.4 0 0 1-.127.268.38.38 0 0 1-.262.086h-.05l-.649-.055z" style="fill:#005daa;fill-opacity:1" transform="matrix(13.3979 0 0 13.39764 -31.994 -33.976)" data-source="https://football-logos.cc"></path><path d="M52.081 26.013c-1.225.002-6.856-1.459-7.656-1.462-1.25.008-4.063 1.552-5.524 2.501a15 15 0 0 1-1.281.75 4.9 4.9 0 0 1 2.635.946c.821.612 1.67 1.362 2.18 1.462l.081.008h.002c.726.068 2.803.582 2.738 1.811 0 0-1.446-.437-3.18-.14-.683.146-1.679.238-3.187.718-1.428.45-5.153 1.862-8.065 1.863-2.216-.002-6.693-1.277-9.277-1.496a6 6 0 0 0-.46-.021c-1.967-.002-3.656 1.032-4.501 1.043-.762 0-2.098-.13-3.406-1.1-.995-.744-1.73-1.831-1.74-2.636-.002-.269.094-.519.304-.684.148-.113.356-.136.63-.139 1.014.001 3.021.441 5.402.44 1.416 0 2.957-.154 4.486-.647.355-.114 1.423-.363 2.111-.536.182.124.374.258.588.406a.1.1 0 0 0 .065.022.13.13 0 0 0 .099-.05.12.12 0 0 0-.028-.166c-1.324-.922-1.953-1.434-4.168-1.428-1.411 0-3.475.196-6.817.597-2.169.259-3.844.36-5.135.36-2.152.001-3.242-.281-3.775-.561-.329-.173-.45-.336-.493-.434.774-.048 4.641-.319 8.057-1.075 3.877-.862 9.948-3.288 12.776-3.283 1.054-.007 2.881 1.08 4.691 2.299 1.822 1.215 3.64 2.554 4.8 3.04a.117.117 0 0 0 .153-.063.12.12 0 0 0-.063-.155c-.664-.278-1.587-.87-2.611-1.561 1.405-.665 6.279-3.591 9.768-3.589 1.659-.003 6.567 1.394 8.043 2.016.703.296 1.195.521 1.507.69q.234.125.334.203a.3.3 0 0 1 .049.043 1 1 0 0 1-.132.008" style="fill:#fff" transform="matrix(13.3979 0 0 13.39764 -31.994 -33.976)"></path><path d="M42.076 31.889c1.733-.297 3.18.14 3.18.14.068-1.281-2.188-1.785-2.821-1.819 0 0 .327.68-1.436.814 0 0-.823-.019-1.16.283 0 0 1.622-.124 2.192.51z" clip-path="url(#b)" style="fill:#fdb913" transform="matrix(13.3979 0 0 13.39764 -31.994 -33.976)"></path><path d="M39.29 30.295c.268 0 .483-.31.483-.31s-.216-.308-.483-.308-.482.308-.482.308.215.31.482.31" style="fill:#005daa" transform="matrix(13.3979 0 0 13.39764 -31.994 -33.976)" data-source="https://football-logos.cc"></path><!-- source: https://football-logos.cc --></svg>