<svg xmlns="http://www.w3.org/2000/svg" version="1.2" viewBox="0 0 209.5 209.5"><metadata xmlns:fl="https://football-logos.cc/england/chelsea">dl1_537f82459b3fa9fb24211d2e7db8b527eb3289f3b6cf7bf252e3b5349695cf21</metadata><!-- Source: https://football-logos.cc --><style data-source="https://football-logos.cc">.s0{fill:#dba111}.s1{fill:#001489}.s2{fill:#fff}.s4{fill:red}</style><path id="path3381" d="M209.5 104.7c0 57.9-46.9 104.8-104.8 104.8C46.9 209.5 0 162.6 0 104.7 0 46.9 46.9 0 104.7 0c57.9 0 104.8 46.9 104.8 104.7" class="s0"></path><path id="path3383" d="M206 104.7c0 56-45.3 101.3-101.3 101.3C48.8 206 3.5 160.7 3.5 104.7 3.5 48.8 48.8 3.5 104.7 3.5c56 0 101.3 45.3 101.3 101.2" class="s1"></path><path id="path3385" d="M176.9 104.7c0 39.9-32.3 72.2-72.2 72.2-39.8 0-72.1-32.3-72.1-72.2 0-39.8 32.3-72.1 72.1-72.1 39.9 0 72.2 32.3 72.2 72.1" class="s0"></path><path id="path3387" d="M174.7 104.7c0 38.7-31.3 70-70 70-38.6 0-69.9-31.3-69.9-70 0-38.6 31.3-69.9 69.9-69.9 38.7 0 70 31.3 70 69.9" class="s2"></path><path id="path3389" d="M44.8 165.1c.8.7 2.7 2.6 2.7 2.6l1.8-2-5.5-5.2-.7.8-7.3 7.6 2.8 2.7s2.4-2.5 3.2-3.4c.7.7 2.4 2.3 2.4 2.3l1.9-1.9s-1.7-1.6-2.5-2.3z" class="s0"></path><path id="path3391" fill-rule="evenodd" d="M58 174.8c0 1.3-.4 2.6-1.2 3.7-1 1.4-2.4 2.3-4 2.6-1.5.2-3-.1-4.2-1-1.3-.9-2.1-2.2-2.3-3.7-.3-1.5.1-3.2 1.1-4.6s2.4-2.3 4-2.6c1.5-.2 3 .1 4.2 1s2.1 2.2 2.3 3.7q.1.4.1.9m-4.4 1.4c.6-.8 1.8-2.9.5-3.8s-2.7.7-3.5 1.7c-.7 1-1.8 2.9-.5 3.8 1.3 1 2.9-.9 3.5-1.7" class="s0"></path><path id="path3393" fill-rule="evenodd" d="M68.9 184.8c-.8 1.5-2.1 2.6-3.6 3.1-1.4.5-2.9.4-4.3-.3s-2.4-1.8-2.8-3.3c-.5-1.5-.4-3.2.4-4.7 1.6-3.1 4.9-4.3 7.9-2.8 2.9 1.4 4 4.9 2.4 8m-3.5-1.8c.6-1.2.8-2.4.6-3.1q-.2-.5-.7-.8c-1.4-.7-2.6 1.1-3.2 2.3-.3.6-.7 1.6-.7 2.4 0 .6.2 1.1.8 1.4q.5.3 1 .1c.7-.2 1.5-1.1 2.2-2.3" class="s0"></path><path id="path3395" d="m72.5 181-.5 1.6s1.4.4 1.8.6c-.5 1.5-3 8.4-3 8.4l3.6 1.3s2.5-6.9 3-8.5c.4.2 1.8.7 1.8.7l.9-2.5-7.2-2.6z" class="s0"></path><path id="path3397" fill-rule="evenodd" d="M90.6 187.8q0 .4-.1.7c-.1.8-.5 1.4-1.1 1.9q.6.8.6 1.8v.8c-.3 1-.8 1.8-1.5 2.3-.6.4-1.7.8-3.3.4l-4.9-1 2.1-10.4.3-1 4.8 1.1c2.3.4 3.1 2.1 3.1 3.4m-4.4 4.1c0-.3-.1-.8-.7-.9 0 0-.3-.1-.5-.1-.2.7-.3 1.2-.4 2 .2 0 .4.1.4.1q.6.1.9-.1c.1-.1.2-.4.3-.6zm-.7-3.6c.2 0 .3.1.3.1.8.1.9-.3 1-.6v-.3q0-.2-.1-.3c-.1-.2-.4-.4-.8-.5-.2.7-.2 1-.4 1.6" class="s0"></path><path id="path3399" d="m96.5 186-5.3 10.9 3.1.2s.8-1.7 1.1-2.4q1 .1 1.9.2c.3.7.9 2.5.9 2.5l4 .3-4.5-13.9z" class="s0"></path><path id="path3401" d="M108.5 194.7c-.1-1.6-.4-8.8-.4-8.8l-3.8.2.5 11.6 7.7-.4-.2-2.7s-2.7.1-3.8.1" class="s0"></path><path id="path3403" d="M119 193.6c-.2-1.6-1.4-8.7-1.4-8.7l-1 .2-2.8.4 1.8 11.5 7.6-1.2-.4-2.8s-2.7.4-3.8.6" class="s0"></path><path id="path3405" d="M141 185.9c-.1 1-.7 1.8-1.6 2.2q-.7.3-1.4 0c-.8-.3-1.5-1.1-1.9-2.2-.5-1.2-.6-2.2-.3-2.9q.4-.8 1.4-1.2c.7-.3 1.3 0 2.3.5l.8.5 1.4-2.2-.8-.6c-1.5-1-3.5-1.2-5.1-.5-1.5.6-2.7 1.7-3.4 3.2-.6 1.5-.6 3.2.1 4.8 1.2 3 4.6 4.5 7.6 3.3 2.2-.8 3.4-2.5 3.6-4.8l.1-1-2.8-.2z" class="s0"></path><path id="path3407" d="M149.9 182.7c-.8-1.4-4.3-7.7-4.3-7.7l-.9.5-2.5 1.4 5.7 10.1 6.7-3.7-1.3-2.5s-2.4 1.4-3.4 1.9" class="s0"></path><path id="path3409" d="m157.3 167.1-.8.6-1.4 1.1 4.7 6.4c.2.2.2.4.2.6-.1.3-.4.6-.7.9-.2.1-.5.2-.8.2q-.4-.1-.6-.4l-4.7-6.4-3.1 2.3 4.6 6.3q1.1 1.4 2.6 1.6c1.1.2 2.4-.2 3.5-1.1 2.5-1.7 2.4-4.1 1.4-5.5z" class="s0"></path><path id="path3411" fill-rule="evenodd" d="M172.5 167.3c0 .7-.3 1.8-1.4 2.9l-3.7 3.5-8.1-8.3 3.6-3.5c2-1.9 4.2-1.1 5.1-.1.6.5.9 1.2.9 1.9 1 0 1.8.3 2.5 1.1.7.7 1.1 1.6 1.1 2.5m-8.6-2.7 1.2 1.2c.1-.1.1-.2.1-.2.3-.2.4-.5.4-.6 0-.2-.1-.4-.3-.5-.2-.3-.6-.6-1.4.1m3 3.1c.5.5.9.9 1.4 1.5l.3-.3c.3-.3.5-.6.5-.8s-.2-.5-.4-.6c-.2-.2-.8-.8-1.4-.1 0 0-.2.1-.4.3" class="s0"></path><path id="path3413" d="m44.8 164 2.6 2.6.8-.8-4.3-4.2-.2.2-6.8 7.1 1.7 1.6s2.9-3 3.2-3.4l2.4 2.4.8-.8-2.4-2.4c.2-.3 1.9-2 2.2-2.3" class="s2"></path><path id="path3415" fill-rule="evenodd" d="M57.2 174v.8c0 1.1-.3 2.3-1 3.3-.9 1.2-2.2 2-3.5 2.2s-2.6-.1-3.7-.8c-1.1-.8-1.8-1.9-2-3.2-.2-1.4.1-2.8 1-4.1.9-1.2 2.1-2 3.5-2.2 1.3-.3 2.6.1 3.7.8 1 .8 1.8 1.9 2 3.2m-2.7-2.3c-1.9-1.3-3.8.9-4.5 2-.7 1-2.2 3.5-.3 4.8 1.8 1.4 3.7-.8 4.5-1.9.7-1 2.2-3.5.3-4.9" class="s2"></path><path id="path3417" fill-rule="evenodd" d="M68.2 184.4c-.7 1.4-1.8 2.4-3.1 2.8-1.2.4-2.6.3-3.8-.3-1.1-.6-2-1.6-2.4-2.8-.4-1.3-.3-2.8.4-4.2 1.3-2.7 4.3-3.7 6.8-2.5 2.6 1.3 3.5 4.3 2.1 7m-4.7 1.7c1.2-.4 2.1-1.9 2.5-2.8.5-.8 1.1-2.4.7-3.6q-.3-.8-1.1-1.2c-2-1.1-3.6 1.4-4.1 2.5-.6 1.1-1.7 3.9.4 4.9q.8.4 1.6.2" class="s2"></path><path id="path3419" d="m73.3 181.3-.3.8s1.4.5 1.8.6c-.2.5-3 8.5-3 8.5l2.2.7s2.8-8 2.9-8.4c.4.1 1.8.6 1.8.6l.4-1.1-5.8-2z" class="s2"></path><path id="path3421" fill-rule="evenodd" d="M89.8 187.8v.6c-.2.9-.8 1.5-1.7 1.8q1.2.75 1.2 2.1 0 .2-.1.6c-.2.7-.6 1.4-1.2 1.7q-1 .7-2.6.4l-4.2-.9 2-9.6v-.3l4.2.9c1.9.4 2.4 1.8 2.4 2.7m-4.5-2c-.1.4-.6 2.7-.7 3.1.4.1 1 .2 1 .2.6.1 1.6.1 1.9-1.1q.1-.3.1-.5 0-.4-.2-.8-.4-.5-1.5-.7s-.4-.1-.6-.2m-.9 4.2c-.1.4-.7 3.1-.7 3.5.4.1 1.1.2 1.1.2q1 .2 1.5-.1t.6-1.2s.1-.2.1-.4c0-.6-.2-1.5-1.4-1.8 0 0-.9-.1-1.2-.2" class="s2"></path><path id="path3423" fill-rule="evenodd" d="m97.5 185.8 3.6 11.1-2.4-.2s-.7-2.3-.8-2.6c-.3 0-2.6-.2-2.9-.2-.2.3-1.2 2.4-1.2 2.4l-1.4-.1 4.8-9.8zm-2 7c.5 0 1.6.1 2 .2-.1-.5-.6-2-.8-2.7-.3.7-1 2.1-1.2 2.5" class="s2"></path><path id="path3425" d="M107.8 195.5c0-.5-.4-8.8-.4-8.8h-.2l-2.1.1.4 10.1 6.2-.3-.1-1.3c0 .1-3.4.2-3.8.2" class="s2"></path><path id="path3427" d="M118.4 194.5c-.1-.5-1.4-8.7-1.4-8.7h-.2l-2.1.3 1.6 10 6.1-1-.2-1.2s-3.4.5-3.8.6" class="s2"></path><path id="path3429" d="M141.7 185.9c0 1.3-.8 2.4-2 2.9q-1 .4-2 0c-1-.4-1.8-1.3-2.3-2.6-.6-1.4-.6-2.6-.3-3.6q.5-1 1.8-1.5c1.1-.5 2.1.1 3 .6l.2.1.6-1-.2-.1c-1.4-.9-3-1.1-4.4-.5-1.4.5-2.4 1.5-3 2.8-.5 1.3-.5 2.8.1 4.2 1 2.7 4 4 6.7 2.9q2.8-1.1 3-4.1l.1-.3-1.3-.1z" class="s2"></path><path id="path3431" d="M149.6 183.8c-.2-.5-4.3-7.8-4.3-7.8l-.2.2-1.8 1 4.9 8.8 5.4-3-.6-1.1s-3 1.6-3.4 1.9" class="s2"></path><path id="path3433" d="m157.2 168.2-.2.1-.9.6 4.3 5.8q.4.6.3 1.2c-.1.7-.7 1.2-1 1.4s-.8.4-1.3.3q-.7-.1-1.1-.7l-4.2-5.7-1.9 1.4 4.2 5.6q.8 1.2 2 1.4c1.2.2 2.4-.5 3-1 2-1.4 2-3.3 1.2-4.5z" class="s2"></path><path id="path3435" fill-rule="evenodd" d="M171.7 167.3q0 1.2-1.2 2.3l-3.1 3.1-7-7.3 3.1-2.9c1.7-1.7 3.4-.9 4-.2.5.5.7 1.1.7 1.7q0 .3-.1.7c1-.4 2-.2 2.8.6.6.6.8 1.2.8 2m-5.8-3.3q-1.1-1.2-2.6.1s-.3.3-.4.5c.2.3 1.9 2 2.1 2.3.3-.3.8-.7.8-.7.2-.3.6-.7.6-1.2 0-.3-.2-.7-.5-1m3.3 5.4q.6-.7.7-1.3 0-.6-.6-1.2c-.1 0-1.3-1.3-2.6-.1l-.9.9 2.5 2.5c.2-.2.9-.8.9-.8" class="s2"></path><path id="path3437" d="M58.2 35.7 54 36.9l.5 1.5c.5 1.8 0 3.8-1.4 5q-1.2 1.1-2.8 1c-1.5-.1-3.2-1.1-4.6-2.7-1.6-1.9-2.4-3.6-2.3-5.2 0-1.1.6-2 1.6-2.9 1.1-1 2.6-1 4.5-.6l1.5.3.9-4.1-1.4-.3c-3.2-.8-6.4 0-8.8 2-4.5 4-4.9 10.5-.8 15.2 3.7 4.3 10.3 4.8 14.6 1.1 3.1-2.7 4.2-6.2 3.1-10z" class="s0"></path><path id="path3439" d="m69.7 14.5-4.3 2s2.4 5.2 3.2 6.9c-1.2.6-2.4 1.2-3.6 1.7-.9-1.7-3.3-6.8-3.3-6.8L56 21l8.7 18.3 5.7-2.6-3.6-7.6c1.3-.5 2.5-1.1 3.7-1.7.9 1.8 3.6 7.5 3.6 7.5l5.6-2.7-8.6-18.3z" class="s0"></path><path id="path3441" d="M89 25.9q-.4-2.1-.9-4.1c1.8-.4 6.5-1.3 6.5-1.3l-.8-4.1s-4.7.9-6.5 1.3c-.2-1.3-.4-2.3-.7-3.6 1.8-.3 6.8-1.3 6.8-1.3l-.8-4.1-1.5.3-11.5 2.3 4 19.9 13.1-2.6-.8-4.1s-5.1 1-6.9 1.4" class="s0"></path><path id="path3443" d="m107.6 8.2-6.3-.1-.1 1.5-.4 18.8 13.3.3.1-4.4s-5.1-.1-7-.2c.1-2.5.4-15.9.4-15.9" class="s0"></path><path id="path3445" d="M128 18.5c-1.6-1.2-2.1-1.7-1.9-2.4 0-.3.4-1.4 1.6-1.1.7.2 1.4.5 1.7 2.1l.3 1.6 4.2-1.4-.2-1.3c-.6-2.6-2.7-4.7-5.5-5.4-1.9-.5-3.9-.2-5.5.7-1.5.9-2.5 2.3-2.9 4-1.1 4.1 1.7 6.1 3.6 7.5 1.9 1.3 2.4 1.9 2.1 3q-.1.5-.6.8c-.4.3-.9.3-1.3.2-1-.2-1.4-.7-1.8-2l-.5-1.5-4.2 1.7.4 1.3c.8 2.6 2.6 4.2 5.7 5 3.4.8 7.6-.8 8.6-4.9 1.1-4.3-1.8-6.5-3.8-7.9" class="s0"></path><path id="path3447" d="M143 29.3c1.6.8 5.9 3 5.9 3l1.9-3.8s-4.3-2.1-5.9-2.9c.6-1.2 1.1-2.1 1.7-3.3 1.6.9 6.2 3.2 6.2 3.2l1.9-3.7-11.9-6-.7 1.3-8.5 16.8 12 6.1 1.9-3.8s-4.7-2.3-6.4-3.1q1-1.9 1.9-3.8" class="s0"></path><path id="path3449" d="M166.6 31.2 147.7 41l3.6 3.2s3.1-1.7 4.2-2.3c.9.7 2.1 1.8 3 2.6-.4 1.2-1.6 4.6-1.6 4.6l5 4.3 8.1-23.9z" class="s0"></path><path id="path3451" d="m57.5 37-2.2.6.1.5c.7 2.2.1 4.6-1.7 6.1q-1.5 1.3-3.4 1.2c-1.9-.1-3.8-1.2-5.4-3-1.8-2.1-2.7-4.1-2.5-5.9q.1-2.1 1.9-3.7c1.6-1.4 3.7-1.1 5.4-.8l.5.1.5-2.1-.5-.1c-2.8-.7-5.7 0-7.8 1.8-4.1 3.6-4.5 9.5-.8 13.7 3.4 3.9 9.4 4.4 13.2 1 2.8-2.5 3.8-5.5 2.8-8.9z" class="s2"></path><path id="path3453" d="M70.1 15.4 66.7 17s2.9 6.1 3.3 6.9c-.8.3-4.8 2.3-5.5 2.6-.4-.8-3.3-6.9-3.3-6.9l-3.8 1.8L65.2 38l3.8-1.8s-3.1-6.7-3.5-7.6c.7-.3 4.8-2.2 5.5-2.5.4.8 3.5 7.5 3.5 7.5l3.9-1.8-7.8-16.6z" class="s2"></path><path id="path3455" d="M88.2 27.1c-.2-.8-1.1-5.3-1.2-6.1.8-.2 6.4-1.3 6.4-1.3l-.4-2.1s-5.6 1.1-6.5 1.3c-.1-.8-.9-4.8-1.1-5.6.9-.1 6.8-1.3 6.8-1.3l-.4-2.1-11 2.2L84.4 30l11.1-2.2-.4-2.1s-6.1 1.2-6.9 1.4" class="s2"></path><path id="path3457" d="m106.5 9.2-4.2-.1v.5l-.4 17.8 11.2.2v-2.3s-6-.2-6.9-.2c0-.9.3-15.9.3-15.9" class="s2"></path><path id="path3459" d="M127.9 14c1.4.3 2.2 1.2 2.5 2.8l.1.6 2.2-.7v-.5c-.5-2.2-2.4-4-4.7-4.6-1.7-.5-3.4-.2-4.8.6-1.2.7-2.1 1.9-2.4 3.3-.9 3.5 1.4 5.1 3.2 6.4 1.8 1.4 3 2.3 2.5 4.1-.2.8-.7 1.3-1.1 1.5-.6.4-1.4.5-2 .3-1.4-.3-2.1-1-2.6-2.7l-.2-.5-2.3 1 .2.4c.6 2.2 2.3 3.6 4.9 4.3 3 .7 6.6-.6 7.5-4.1.9-3.7-1.5-5.5-3.5-6.9-1.7-1.3-2.7-2.1-2.3-3.4.3-1.2 1.3-2.3 2.8-1.9" class="s2"></path><path id="path3461" d="m146.1 21 6.2 3.1 1-1.9-10-5-.3.4-8 15.9 10.1 5.1 1-1.9s-5.5-2.8-6.3-3.2c.3-.7 2.4-4.8 2.8-5.6.8.4 5.9 3 5.9 3l.9-1.9s-5.1-2.6-5.8-3c.3-.7 2.2-4.3 2.5-5" class="s2"></path><path id="path3463" fill-rule="evenodd" d="m168.2 31.6-6.8 20.1-3.3-3s1.4-4 1.6-4.6c-.5-.3-3.6-3-4-3.4-.5.3-4.3 2.2-4.3 2.2l-2-1.7 17.7-9.1zM160.3 42c.4-.9 1.1-3.2 1.6-4.5-1.3.6-3.4 1.7-4.2 2.2.6.6 2 1.7 2.6 2.3" class="s2"></path><path id="path3465" fill-rule="evenodd" d="M148.9 112.1c3.3-4.5-2.5-8.9-5.4-6.7-5 3.7 5.7 7.4 5.7 17.1 0 10.3-16.6 9.1-21.7 3.1 0 2.2 5.3 13.7 15.2 9.1-11.3 12.3-2.9 24.8-8.7 24.8-3 0-2.8 2.9-2.8 2.9s-2.3-.7-2.2-3c-1.7 0-4.1.5-4.2 3.8 0 0-2-.5-1.9-3.8-3.2-.1-5.7.6-5.7 3.3 0 0-2-1.5-1.8-3.9-1.2-1.4-1.6-7.7 8.9-7.2 2.9.2 3.6-7.3 1.6-9.5-1.3-.1-6.2-.2-10.7-8.8-2.2 0-8.5 2.4-8.5 5.9 0 3.9 7 4.9 7 4.9-14.1 2.7-5.4 12.2-14.7 13.8-3.7.7-2.8 3.9-2.8 3.9s-3.3-1.1-3.3-3.9c-2.1 0-4.4 1.3-4.4 4.7 0 0-2.6-.8-2.6-4.7-3.9 0-5 1.8-4.5 3.9 0 0-2.9-1.3-2.1-5-1.8-4.5.6-8.4 10.2-7.3 6.6.9 6.8-9.5 6.8-10.9-11.1-4.8 4.9-18.7 12.2-21.1l-3.5-5.9s-6 7.1-13 8.9c-1.1-2.2-4.8-2.5-7.5-1.2-.9.5-1.7 1.1-2.3 2 0 0-1 1.1-.7 2.9H81q-.5-.1-.9-.3v13.6h1.3v4.3h-2.2c1.2.5 2 1.5 2.1 2.7.2 1.9-1.3 3.4-3.2 3.6-1.9.1-3.6-1.2-3.7-3-.1-1.5.7-2.8 2.1-3.3h-2.4v-4.3h1.3v-15.4s-1.1-1.1-1.1-3.9c0 0 .3-2.3-1.3-.7 0 0-2.3.1-.5-2.2 0 0 .6-2.3-.8-1.2-.1-5.3 1.1-2.6 1.1-2.6.4-.9 1.2-1.9 2.6-2.7V88.6c-.4-.1-.8-.2-1.3-.4-1.5-.4-1.7-2.1-1.5-3.1-2.3-2.7-.6-3.1.1-4.4-.8-1-1.3-1.6-.8-3.1.5-1.6 1.6-2.1 3.4-2.4h.1V74h-.5q0-.1-.1-.1-.2 0-.4-.1h-.1q-.4-.1-.7-.3h-.1q-.2 0-.3-.1h-.1l-.2-.2h-.1q-.1 0-.1-.1h-.1q-.1-.1-.2-.1c.3 0 1.4-.4 2.7-1.2-3.7-1-6.6-4.1-7-8.1-.4-5 3.5-9.4 8.8-9.9 2.2-.1 4.3.4 6.1 1.5q.3.2.5.3l.1.1q.3.2.5.4l.1.1q.4.3.8.7l.2.2.2.4.3.3q.1.1.2.3l.2.4q.1.1.2.3.2.3.3.7.1.1.1.2.2.3.2.6.1.1.1.2l.2.6v.3q.1.4.1.8c.3 2.4-.5 4.7-2 6.4-1.8 2.4-3.6 3.8-5.2 4.6v2c1.1.4 2.4 1.3 4 2.8 3.8 3.6 10.4 4.3 14.5 4.5 2.8-2.8 3.9-7.3 3.9-7.3-2.9-1-4-5.1-2.1-7 0 2.8 8.1 2.9 8.1-3.2 0-.9 1.5-4.2-1.4-3.7 2.3-4.7 3.5-3 5-3.2-2-2.7 1.3-3.4 2.6-3.4-.4 6.7 16.4 4.8 17.4 5.1 1.3 3.3 3.1 2 4.4 4.7l-1.2 2-1.3-.5.1 1.6c-1.1 1-1.7 1.8-2.1 2.5-.5.7-.3-.2-.8.5.1-.8-.3.1-.8-.3q-.45-.3-1.8-.3c-1.6 0-2.5 1.3-3.1 2.4-.5.9-.1 3.4 4.2 2-.6 1.8-.4 3.8 0 6.8-.4-1.8-8.3-6.3-8.3 2.2 0 6.3 6.9 6.5 6.9 3.2 5.3 6.7-2.8 11.1-5.9 9.3l-.3 3.8c5.3 5.7-.1 24.5 15.2 24.5 2.4 0 4.1-2 4.3-3.6 1-9.1-9-10-9-20 0-9 12.5-12.6 12.5-17.9 0-5.4-7.1-4.5-7.1 0-2.9-10 16.7-13.8 16.7 0 0 8.2-12.6 10.1-15.7 19 1.1-1.5 2.7-2.7 4.6-3.4 4.7-1.8 9.7-.1 11.2 3.7 1.4 3.8-1.2 8.4-5.9 10.1m-50-14.2c-.6-1.3-1.4-2.8-2.2-2.7-1.6 3.4-9.1 5.4-11.3 1.3 3.4-.7 3.4-3.8.7-5.3-2.7-1.1-5.1-1.5-6-1.6v19.1c.4.1.8 0 1.3-.2 3.4-1.2 5.9-4 9.7-6.2 4.6-2.7 6.8-3.8 7.8-4.4M137 71.8c2.1-.2 3.8-1.4 4.1-2.8v.3c.3 2.7-1.7 5.1-4.4 5.3-2 .2-3.8-.8-4.7-2.3.3-.5.7-1.1 1.1-1.6.9.8 2.3 1.2 3.9 1.1" style="fill:#d1d3d4"></path><path id="path3467" fill-rule="evenodd" d="M71.1 136.5c1 0 3.5-.6 3.5-1.1v-18.2c-1.2 0-2.2 1.9-2.2 1.9 0-1.7.7-3.1 1.1-3.5-.6-.6-2.3-.4-2.3-.4s-.6 0-2.2 1.6c0-1.7 1.9-3.8 2.3-4.2 0 0-.7-.4-1.8-.4 0 0-1.1 0-2.5 1.1 0-1.4 2.1-3.8 3.5-3.8 0-1.8 5.2-1.8 7.5-1.8 5.5 0 24.5-12.1 24.5-12.1-4.7 0-6.6-.7-6.6-.7-.7-1.4-1.4-2.8-2.2-2.7-1.6 3.4-9.2 5.4-11.3 1.2 1.8.6 3.6-.1 4-1.5.5-1.4-.7-3-2.5-3.5q-.4-.2-.8-.2v-.1c-2.8-1.1-5.1-1.4-6-1.5v19.1c-.8-.1-1.7-.2-2.5-.2V88.1c0-1.8-1.3-2.6-2.2-2.6-.4 0-.8-.1-1.3-.3-1.5-.5-1.7-2.1-1.5-3.1-2.4-2.7-.6-3.2.1-4.4-.8-1.1-1.3-1.6-.8-3.2.5-1.5 1.6-2 3.3-2.3q.1 0 .2-.1c.4.5 2 1 2.2 1v-2.3s-1.2.3-2.2.2q-.3 0-.5-.1h-.1q-.2-.1-.4-.1h-.1q-.4-.1-.8-.3h-.1q-.1-.1-.2-.1l-.1-.1q-.1 0-.3-.1-.1-.1-.2-.1-.1-.1-.2-.1c.3 0 1.4-.5 2.7-1.2H72c-2.8-1.4-4.8-4.8-4.8-8.8 0-4.2 2.2-7.8 5.3-9l1.4-.2c2.2-.2 4.3.4 6 1.4v.1q.3.1.6.3 0 .1.1.1.2.2.5.4.5.4.8.8l.2.2.3.3q.1.2.2.3.1.2.3.4l.2.4.2.2q.2.4.3.7.1.2.1.3.1.2.2.5.1.2.1.3.1.3.1.6.1.1.1.2.1.5.1.9c.2 2.4-.6 4.6-2 6.4-1.8 2.3-3.6 3.7-5.2 4.5V74s2.6.9 5.8 2.3q1.3.8 2.7 1.4c5.2 2.7 10.6 6.9 8.8 11.9 5.1 0 4.7-6.6 3.6-7.7 1.7-1.7 5-9.2 5-10.6 0 0-6.7-1.4-5.6-6.1.1 1.1 1.4 1.8 3 1.8 10.7 0 6.9-13.8 1.1-8 2.4-4.8 6-3.7 7.6-3.9h2.9c-2.3-2.3 1.1-6.6 2.4-6.6-.5 6.7 13.6 8 14.7 8.3 1.3 3.3 3.1 2 4.3 4.7l-1.2 1.9-1.2-.4v1.5c-2.1 2.1-2.4 3.2-3.3 4.5.1-1.2.3-2.1-2.1-2.1-1.7 0-2.5 1.3-3.1 2.4-.6 1-.2 3.4 4.1 2.1-.5 1.7-.3 3.7 0 6.8-.4-1.9-8.3-6.3-8.3 2.2 0 6.3 6.9 6.4 6.9 3.1 5.4 6.8-2.8 11.2-5.9 9.3l-.2 3.9c3.5 3.7 2.3 13.1 5.4 19.1 1.7 4.5 4.6 7.9 10.7 7.9 6.4 0 6.9-4.7 6.9-5.8 0-9.1-9.5-11.3-9.5-19.9 0-8.5 12.9-12 12.9-18.2 0-7.4-10.1-6.2-10.6-.6v.5c-2.8-10 16.8-13.9 16.8-.1 0 8.3-12.7 10.2-15.8 19.1 1.1-1.5 2.7-2.7 4.7-3.5 4.7-1.7 9.7-.1 11.1 3.7 1.5 3.9-1.2 8.4-5.9 10.2 1.8-.7 3.1-2.5 3.1-4.6 0-2.7-2.2-4.8-4.9-4.8-2.5 0-4.6 1.9-4.9 4.4-.6 3.3 7.1 7.2 7.1 15.4 0 10.2-16.6 9-21.8 3.1 0 2.2 5.3 13.7 15.3 9.1-11.3 12.3-2.9 24.8-8.7 24.8-3.1 0-2.8 2.9-2.8 2.9-.8-.8-1.3-2.5-.8-3H126c-1.7-.1-4.1.5-4.2 3.7-.9-.8-1-2.9-.2-3.7h-1.7c-3.2-.2-5.8.6-5.8 3.2-.6-.6-1.1-3-.2-3.9h-1.6c0-4.8 3.3-5.9 11.6-5.9 0 0 6.8-8.7 1.4-14.1-1.4 0-7.8.3-8.4-5.3-1.4-.3-3-.3-4.7-.1-2.2 0-8.6 2.4-8.6 5.9 0 3.8 7 4.9 7 4.9-14.1 2.6-5.3 12.2-14.6 13.8-3.7.6-2.9 3.8-2.9 3.8-1.1-1.1-1.9-3.3-1.4-3.8h-1.8c-2.1 0-4.4 1.2-4.5 4.6-.7-.7-1.6-3.1 0-4.7h-2.5c-4 0-5 1.8-4.6 4 0 0-1.9-3 .2-5.1h-2.2c0-6.7 4.8-5.5 10.9-5.5 3.9 0 9.6-4.9 9.6-13.1 0 0-3.8-1.5-3.8-5.3 0-9 21.7-10.1 21.7-17.5 0-3.1-2.6-4.4-4.5-4.4.5.5 3.4 6.6-4.7 6.6l-3.5-5.9s-6 7-13 8.9c-1.1-2.2-4.8-2.6-7.6-1.2-.9.4-1.7 1.1-2.2 1.9 0 0-1.1 1.2-.7 3 0 0-1.9-1.7-1.1-3.4-.5-.3-1.3-.5-2.1-.5-.2 1.4.5 2.9 1.7 3.5v13.7h1.3l.1 4.2-2.2.1c1.1.4 1.9 1.4 2.1 2.7.1 1.8-1.3 3.4-3.2 3.6-1.9.1-3.6-1.2-3.8-3.1v-.1c.3.8 1.1 1.4 2.1 1.4 1.1 0 2.1-.9 2.1-2.1s-1-2.1-2.1-2.1q-.4 0-.8.1.4-.3.8-.4h-2.3m12-50.6h.1zm-3.7-28.1c0-1.9-1.6-3.5-3.6-3.5-1.6 0-2.9 1.1-3.4 2.5v.1q-.1.4-.1.9c0 2 1.6 3.6 3.5 3.6h.1c.2.8.3 1.8 0 2.4 1.9-1.6 3.5-3.7 3.5-6m-4.3 22.7c0-.2-2.2-.7-3.3-.7-.5 0-.7.7-.7.9s.3.8.7.8c1.1 0 3.3-.7 3.3-1m.7-2.8c0-.3-3-1.4-4.5-1.5-.7-.1-1 .8-1 1.1s.2 1.1.8 1.2c1.5.1 4.7-.5 4.7-.8m.2-3c.1-.3-2.9-2.1-4.5-2.5-.7-.2-1.2.7-1.3 1s0 1.3.7 1.4c1.6.5 5 .4 5.1.1m-3.5-17.9-.1.1zm0 0q0-.1.1-.2-.1.1-.1.2m0-8.1" class="s1" data-source="https://football-logos.cc"></path><path id="path3469" d="M128.9 69.2c1 1.6 2.8 2.6 4.7 2.4 2.7-.3 4.7-2.7 4.5-5.4q0-.1-.1-.3c-.2 1.4-1.9 2.6-4 2.8-1.6.2-3.1-.3-3.9-1.1-.4.6-.8 1.1-1.2 1.6" class="s4"></path><path id="path3471" d="m122.3 60 1.7.1-.8 1.2s-1.2.4-.9-1.3m-4.1 0h2.5s-.1 2 1.7 2.2l-.4.6s-4.8-1.2-3.8-2.8" class="s2"></path><path id="path3473" fill-rule="evenodd" d="M70.9 76.9c-.7-.1-.8-1.1-.7-1.4s.6-1.2 1.3-1c1.6.4 4.6 2.2 4.5 2.5s-3.5.4-5.1-.1m.2 3.9c-.6-.1-.8-.9-.8-1.2s.3-1.2 1-1.1c1.5.1 4.5 1.2 4.5 1.5-.1.3-3.2.9-4.7.8m3.5-10v2.3c-.2 0-1.8-.5-2.2-1V71c1 .1 2.2-.2 2.2-.2m.5 12c0 .3-2.2 1-3.3 1-.4 0-.7-.6-.7-.8s.2-.9.7-.9c1.1 0 3.3.5 3.3.7m-3.8 29.8c-.4.4-2.3 2.5-2.3 4.2 0 0-1.3-2.2.5-4.6 1.1 0 1.8.4 1.8.4m25.5 22.5c0 8.2-5.7 13.1-9.6 13.1-6.1 0-10.9-1.2-10.9 5.5-1.8-4.4.6-8.4 10.1-7.2 6.7.8 6.9-9.5 6.9-10.9-11.1-4.8 4.8-18.7 12.2-21.1 8.1 0 5.2-6.1 4.7-6.6 1.9 0 4.5 1.3 4.5 4.4 0 7.4-21.7 8.5-21.7 17.5 0 3.8 3.8 5.3 3.8 5.3M65.1 60.7c-.4-4.6 2.8-8.7 7.4-9.7-3.1 1.2-5.3 4.8-5.3 9 0 4 2 7.4 4.8 8.8-3.7-1.1-6.6-4.2-6.9-8.1m35.3 6.3c2.3 0 5.1-1.4 5.1-5 0-.9-1-3.6-4-3 5.8-5.8 9.6 8-1.1 8M85.6 77.7c3.4 1.3 7.2 1.6 10 1.7 2.8-2.8 3.9-7.2 3.9-7.2-2.9-1-4-5.1-2.2-7h.1c-1.1 4.7 5.6 6.1 5.6 6.1 0 1.4-3.3 8.9-5 10.6 1.1 1.1 1.5 7.7-3.6 7.7 1.8-5-3.6-9.2-8.8-11.9M72.4 59.2c.5-1.5 1.8-2.6 3.4-2.6 2 0 3.6 1.6 3.6 3.5 0 2.3-1.6 4.4-3.5 6 .3-.6.2-1.6 0-2.4h-.1c-1.9 0-3.5-1.6-3.5-3.6.1 1.3 1.3 2.2 2.6 2.1s2.3-1.2 2.2-2.4c-.1-1.3-1.3-2.2-2.6-2.1-1 0-1.8.7-2.1 1.5m36.7-4.1c-2-2.7 3.9-6.6 5.3-6.6-1.3 0-4.7 4.3-2.4 6.6zm-38.6 54.4c-1.4 0-3.5 2.4-3.5 3.8 0-5.2 2.8-4.9 2.8-4.9.4-.9 1.1-1.9 2.6-2.6V85.5c.9 0 2.2.8 2.2 2.6v17.4c.8 0 1.7.1 2.5.2.3 0 .7 0 1.2-.2 3.5-1.2 6-4 9.7-6.2 4.7-2.8 6.8-3.9 7.9-4.4 0 0 1.9.7 6.6.7 0 0-19 12.1-24.5 12.1-2.3 0-7.5 0-7.5 1.8m6.6-37.4c1.1.5 2.4 1.3 4 2.9q.8.7 1.8 1.3c-3.2-1.4-5.8-2.3-5.8-2.3zm6 16.1q.4 0 .8.1c1.8.6 3 2.2 2.5 3.6-.4 1.4-2.2 2.1-4 1.5 3.4-.7 3.4-3.7.7-5.2m40.8 61.5c-8.3 0-11.6 1.2-11.6 6-1.2-1.3-1.5-7.7 9-7.1 2.9.1 3.5-7.4 1.5-9.6-1.2-.1-6.1-.1-10.6-8.7 1.7-.3 3.3-.2 4.7.1.6 5.5 7 5.3 8.4 5.3 5.4 5.4-1.4 14-1.4 14m4.3 9.7s-2.3-.7-2.2-3h1.4c-.5.5 0 2.2.8 3m-15.9-3.7h1.6c-.9.9-.4 3.3.2 3.9 0 0-1.9-1.4-1.8-3.9m20.3-57.8c0 8.7 9.5 10.9 9.5 20 0 1.1-.5 5.8-6.9 5.8-6.1 0-9-3.5-10.7-7.9 1.7 3.1 4.5 5.4 9.7 5.4 2.5 0 4.1-2.1 4.3-3.7 1-9.1-8.9-10-8.9-20 0-9 12.5-12.5 12.5-17.9 0-5.1-6.7-4.5-7.2-.4.5-5.6 10.6-6.8 10.6.6 0 6.2-12.9 9.7-12.9 18.1m-59.1 17.7c-.4.4-1.1 1.8-1.1 3.5 0 0-1.2-1.1-1.2-3.9 0 0 1.7-.2 2.3.4m75.4-11.1c0 2.1-1.3 3.8-3.1 4.6 3.3-4.6-2.4-8.9-5.4-6.8-.7.6-1.1 1.2-1.3 1.8.3-2.5 2.4-4.5 4.9-4.5 2.7 0 4.9 2.2 4.9 4.9m-27.1 55.6s-2.1-.5-1.9-3.7h1.7c-.8.8-.7 2.8.2 3.7m-46.3-18.9c0 1.2-.9 2.1-2.1 2.1-1 0-1.8-.6-2.1-1.5 0-1 .5-2 1.3-2.6q.4-.1.8-.1c1.2 0 2.1.9 2.1 2.1m9.9 18.3s-2.5-.7-2.5-4.7h2.5c-1.6 1.6-.7 4 0 4.7m-8-41.7c-.8 1.6 1.1 3.4 1.1 3.4h-.2q-.2 0-.4-.1-.4-.1-.9-.3c-1.2-.6-1.9-2.1-1.7-3.5.8 0 1.6.2 2.1.5m-6.3 18.6-.1-1.9h1.4v-15.4s1-1.9 2.2-1.9v18.2c0 .5-2.5 1-3.5 1m5.2 17.3h2.2c-2.1 2.1-.2 5.1-.2 5.1s-2.9-1.3-2-5.1m16.8 5s-3.2-1-3.2-3.8h1.8c-.5.5.3 2.7 1.4 3.8" style="fill:#6a7ab5"></path><path id="path3477" d="m31.4 124.7-.1-.3v-.4c-.2-1.3-.5-3.8-2.4-4.2q-.8-.2-1.6.2.2-.9 0-1.6c-.7-1.8-3.2-1.8-4.5-1.8H22c-1.3-.3-3.7-.7-4.7.9q-.4.7-.3 1.6-.7-.5-1.5-.5c-1.9.1-2.7 2.5-3.1 3.7l-.1.4-.2.3c-.6 1.2-1.8 3.3-.5 4.8q.5.6 1.4.8-.7.6-.9 1.3c-.5 1.9 1.5 3.3 2.5 4l.4.3.2.3c.9.9 2.6 2.7 4.4 1.9q.7-.3 1.2-1 .3.8.9 1.2c1.7 1.1 3.6-.4 4.7-1.2l.3-.2.4-.2c1.1-.5 3.4-1.6 3.2-3.5q-.1-.8-.7-1.4.9-.1 1.5-.6c1.5-1.2.8-3.5.3-4.8" class="s2"></path><path id="path3479" d="M23 126.3c10.8 6.4 7.4-.7 7.2-1.7s-.3-8.8-7.2 1.7" class="s4"></path><path id="path3481" d="M22.3 127.9c-2.7 12.2 2.9 6.9 3.8 6.3.9-.5 8.3-3-3.8-6.3" class="s4"></path><path id="path3483" d="M20.6 127.7c-12.5 1.2-5.7 4.9-4.9 5.6s5.4 6.9 4.9-5.6" class="s4"></path><path id="path3485" d="M20.2 126c-5-11.5-6.4-3.8-6.8-2.9-.5 1-5 7.3 6.8 2.9" class="s4"></path><path id="path3487" d="m198.4 123-.2-.3-.1-.4c-.4-1.2-1.1-3.6-3.1-3.7q-.7 0-1.5.5.1-.9-.3-1.6c-1-1.6-3.4-1.2-4.7-.9h-.8c-1.3 0-3.8 0-4.4 1.8q-.3.7-.1 1.6-.8-.4-1.6-.2c-1.8.4-2.2 2.9-2.3 4.2l-.1.4-.1.3c-.4 1.3-1.2 3.6.3 4.8q.6.5 1.5.6-.6.6-.7 1.4c-.1 1.9 2.1 3 3.3 3.5l.3.2.3.2c1.1.8 3.1 2.3 4.7 1.2q.6-.4.9-1.2.5.7 1.2 1c1.8.8 3.5-1 4.4-1.9l.3-.3.3-.3c1-.7 3-2.1 2.5-4q-.2-.7-.8-1.3.8-.2 1.3-.8c1.3-1.5.1-3.6-.5-4.8" class="s2"></path><path id="path3489" d="M188.8 125.1c-9.3-8.2-1.7-7.3-.6-7.4 1.1 0 8.5-2.4.6 7.4" class="s4"></path><path id="path3491" d="M187.5 126.3c-10.7 6.4-7.4-.7-7.2-1.7s.3-8.8 7.2 1.7" class="s4"></path><path id="path3493" d="M188.2 127.9c2.7 12.2-2.9 6.9-3.8 6.3-.9-.5-8.3-3 3.8-6.3" class="s4"></path><path id="path3495" d="M189.9 127.7c12.5 1.2 5.7 4.9 4.9 5.6s-5.4 6.9-4.9-5.6" class="s4"></path><path id="path3497" d="M190.3 126c5-11.5 6.5-3.8 6.9-2.9.4 1 4.9 7.3-6.9 2.9" class="s4"></path><path id="path3499" d="M192.8 126.4q-.1-.2-.1-.3c1-.7 2.1-1.5 2.1-1.5l-.1-.3s-1.3.3-2.5.5c-.6-1-1.6-1.7-2.8-1.8-.4-1.1-.8-2.3-.8-2.3h-.2l-.4 2.4c-.7.2-1.4.6-1.9 1.2q-.3.5-.6 1.1H183v.2s1.2.6 2.3 1.1v.3c.1 1 .5 1.9 1.3 2.5-.4 1.3-.9 2.6-.9 2.6l.3.2s1-1.1 1.9-2q.7.2 1.4.2.8-.1 1.5-.5c1 .8 2.2 1.6 2.2 1.6l.2-.1s-.7-1.3-1.3-2.4c.7-.8.9-1.7.9-2.7" class="s2"></path><path id="path3501" d="M188.8 124.5c-.6.1-1.1.3-1.5.8-.4.4-.5 1-.5 1.6.1 1.2 1.2 2.1 2.4 2 .6 0 1.1-.3 1.5-.8.4-.4.6-1 .5-1.6-.1-1.2-1.2-2.1-2.4-2" class="s4"></path><path id="path3503" d="M21.7 125.1c9.4-8.2 1.7-7.3.6-7.4-1 0-8.4-2.4-.6 7.4" class="s4"></path><path id="path3505" d="M25.2 126.7c1.1-.5 2.3-1.1 2.3-1.1v-.2H25q-.2-.6-.6-1.1c-.5-.6-1.2-1-1.9-1.2-.2-1.2-.3-2.4-.3-2.4h-.3s-.4 1.2-.8 2.3c-1.1.1-2.2.8-2.8 1.8-1.2-.2-2.5-.5-2.5-.5l-.1.3s1.1.8 2.1 1.5v.3c-.1 1 .2 1.9.8 2.7-.6 1.1-1.3 2.4-1.3 2.4l.2.1s1.2-.8 2.2-1.6q.7.4 1.5.5.7 0 1.5-.2c.9.9 1.9 2 1.9 2l.2-.2s-.5-1.3-.8-2.6c.7-.6 1.1-1.5 1.2-2.5z" class="s2"></path><path id="path3507" d="M23.2 125.3c-.4-.5-.9-.7-1.5-.8-1.2-.1-2.3.8-2.4 2-.1.6.1 1.2.5 1.6.4.5.9.8 1.5.8 1.2.1 2.3-.8 2.4-2 .1-.6-.1-1.1-.5-1.6" class="s4"></path><path id="path3509" d="M23 73c-5.2-.9-10.2 2.6-11.2 7.9-.9 5.2 2.6 10.2 7.9 11.2 5.2.9 10.3-2.6 11.2-7.9.9-5.2-2.6-10.3-7.9-11.2" class="s2"></path><path id="path3511" d="M25.2 80.3q-.1-.1-.4-.2c-.8-.6-2.3-1.6-2.4-1.6q-.3-.3-.6-.5-1-.7-1.9-1.2-.3-.2-.7-.3c-.9-.5-1.8-.8-2.8-.9q-1.2.9-2.1 2.2c2.4.9 4.8 2.2 9.7 5.3.2-.7 1.2-2.7 1.2-2.8" class="s4"></path><path id="path3513" d="M23 85.5c.1-.2.5-1.3.7-1.7-5-3.2-7.4-4.5-9.8-5.4q-.5 1-.8 2.2c1.4 1.9 5.1 3.7 9.9 4.9" class="s4"></path><path id="path3515" d="M22.4 77.6c1.9-1.1 4-.8 5.7-.2q-.9-1.3-2.2-2.1c-1.6-.3-3.7-.3-5.4 1q.9.6 1.9 1.3" class="s4"></path><path id="path3517" d="M14.9 86.6q.4.2.8.5l1.8.8.8.2c.9.3 3.1.9 3.3.9 0 0 .8-2 1.1-2.8-3.7-.9-7.8-2.6-9.8-4.7q-.1 1.5.2 2.9c.4.9 1 1.6 1.8 2.2" class="s4"></path><path id="path3519" d="m21.7 89.8-.8-.2q-1.1-.3-2.3-.6c.4.8 1 1.5 1.7 2q1.3.1 2.5-.1c-.6-.5-1.1-1.1-1.1-1.1" class="s4"></path><path id="path3521" d="M29.5 80.1q-.3-.9-.7-1.7c-1.5-.7-3.7-1.3-5.7-.3l2.7 1.7h2.3q.8.1 1.4.3" class="s4"></path><path id="path3523" d="M28.1 80.6c-.1 4.4-2.2 7.8-4 10 2.9-1 5.1-3.4 5.6-6.6.2-1.1.2-2.1 0-3.1q-.7-.2-1.6-.3" class="s4"></path><path id="path3525" d="M19.8 76c1.3-1.2 2.7-1.5 4.1-1.6q-.5-.1-1.1-.2c-1.9-.4-3.8 0-5.5.9.9.1 1.7.4 2.5.9" class="s4"></path><path id="path3527" d="M25.9 80.6c-.6 1.3-1 2.1-1.3 2.9q-.2.3-.3.6c-.1.4-.6 1.6-.6 1.6l-.3.7-1.2 2.9c.4.5.8.8 1.1 1.1 1.8-2 4-5.4 4.1-9.9q-.7 0-1.5.1" class="s4"></path><path id="path3529" d="M17.7 88.7q-.9-.3-1.7-.7c.2.6.5 1.2.8 1.7q.9.6 2.1 1c-.5-.6-1-1.2-1.2-2" class="s4"></path><path id="path3531" d="m15.1 87.5-1.2-.8q.6 1.1 1.5 1.9-.2-.5-.3-1.1" class="s4"></path><path id="path3533" d="M178.6 84.2c.9 5.3 5.9 8.8 11.2 7.9 5.2-1 8.8-6 7.8-11.2-.9-5.3-5.9-8.8-11.2-7.9-5.2.9-8.8 6-7.8 11.2" class="s2"></path><path id="path3535" d="M184.2 80.3q.2-.1.5-.2c.7-.6 2.3-1.6 2.3-1.6q.4-.3.7-.5 1-.7 1.9-1.2.3-.2.6-.3c.9-.5 1.8-.8 2.9-.9q1.2.9 2.1 2.2c-2.5.9-4.8 2.2-9.7 5.3-.3-.7-1.2-2.7-1.3-2.8" class="s4"></path><path id="path3537" d="M186.5 85.5c-.1-.2-.5-1.3-.7-1.7 5-3.2 7.3-4.5 9.7-5.4q.6 1 .9 2.2c-1.4 1.9-5.1 3.7-9.9 4.9" class="s4"></path><path id="path3539" d="M187 77.6c-1.8-1.1-4-.8-5.6-.2q.9-1.3 2.2-2.1c1.6-.3 3.7-.3 5.4 1q-.9.6-2 1.3" class="s4"></path><path id="path3541" d="M194.5 86.6q-.3.2-.8.5-.8.4-1.7.8l-.8.2c-1 .3-3.1.9-3.3.9 0 0-.8-2-1.1-2.8 3.7-.9 7.8-2.6 9.7-4.7q.2 1.5-.1 2.9c-.4.9-1.1 1.6-1.9 2.2" class="s4"></path><path id="path3543" d="m187.8 89.8.8-.2q1.1-.3 2.3-.6c-.4.8-1 1.5-1.7 2q-1.3.1-2.5-.1c.6-.5 1.1-1.1 1.1-1.1" class="s4"></path><path id="path3545" d="M180 80.1q.2-.9.7-1.7c1.5-.7 3.7-1.3 5.7-.3l-2.7 1.7h-2.3q-.8.1-1.4.3" class="s4"></path><path id="path3547" d="M181.4 80.6c0 4.4 2.1 7.8 3.9 10-2.8-1-5-3.4-5.6-6.6q-.2-1.6.1-3.1.6-.2 1.6-.3" class="s4"></path><path id="path3549" d="M189.7 76c-1.3-1.2-2.8-1.5-4.1-1.6l1-.2c2-.4 3.9 0 5.5.9q-1.2.15-2.4.9" class="s4"></path><path id="path3551" d="M183.5 80.6c.7 1.3 1.1 2.1 1.4 2.9q.1.3.3.6c.1.4.6 1.6.6 1.6l.3.7 1.2 2.9c-.4.5-.8.8-1.2 1.1-1.7-2-4-5.4-4-9.9q.7 0 1.4.1" class="s4"></path><path id="path3553" d="M191.8 88.7q.9-.3 1.7-.7c-.2.6-.5 1.2-.8 1.7q-1 .6-2.1 1c.5-.6.9-1.2 1.2-2" class="s4"></path><path id="path3555" d="M194.4 87.5q.6-.4 1.1-.8-.6 1.1-1.4 1.9.2-.5.3-1.1" class="s4" data-source="https://football-logos.cc"></path><!-- source: https://football-logos.cc --></svg>