<svg xmlns="http://www.w3.org/2000/svg" viewBox="237.12 31.34 1291.22 1702.04"><metadata xmlns:fl="https://football-logos.cc/ghana/ghana-national-team">dl1_5dc6000daf67216c8758bcfea289c6db3925b9707161b99577802ed39d1595cd</metadata><!-- Source: https://football-logos.cc --><path fill="#fee501" fill-rule="evenodd" d="m1468.43 234.21-192.5.17a.532.529 4.689 0 0-.51.43c-5.28 30.22-14.25 59.09-25.46 88.42-37.21 97.35-100.83 182.96-182.16 247.54q-39.94 31.71-85.23 53.91c-22.4 10.98-44.36 18.73-68.19 24.95-32.08 8.38-75.46 15.8-96.86 20.18q-24.76 5.07-43.24 10.03c-135.16 36.32-245.2 138.57-290.42 270.85q-17.25 50.48-21.52 101.82-7.85 94.47 23.99 181.17c35.07 95.5 102.85 174.83 191.5 224.5q78.99 44.26 172.86 52.4c9.59.84 19.07.71 30.3.96q26.44.59 52.07-2.45c75.71-9.01 147.78-37.84 208.38-84.12q81.38-62.15 126.13-156.36 34.14-71.87 39.38-153.04.34-5.3.32-10.13c-.05-8.42.43-16.95.28-25.28q-1.38-77.76-30.28-149.44c-42.36-105.04-124.16-187.26-227.96-232.04q-2.77-1.2-10.36-4.08a1.023.748 53.825 0 0-.22-.07l-3.29-.56a2.112 1.864-39.1 0 0-.49-.02q-3.49.26-12.98 2.73-20.54 5.35-46.39 9.65a.328.328 47.729 0 0-.03.64q2.78.75 13.11 3.67 54.33 15.34 102.88 45.81 103.21 64.79 151.99 175.72c18.56 42.19 29.48 88.05 32.02 135.23q.2 3.76.77 9.27c.39 3.72.19 7.4.24 11.33q.06 4.54-.22 8.5c-.84 12.18-1.27 25.33-2.53 36.3-9.34 81.68-44.15 158.25-99.43 219.12-67.5 74.31-163.15 121.14-263.89 127.34-13.94.86-26.1.51-41.99.54q-8.15.02-23.07-1.46c-84.94-8.46-164.86-44.36-227.38-102.4-83.06-77.09-129.01-185.44-125.61-298.66 2.36-78.44 28.4-156.3 75.21-219.64q26.15-35.4 57.17-62.57c36.45-31.92 79.33-58.05 124.77-74.41q35.9-12.91 70.43-18.57 12.27-2.01 23.23-2.88 24.83-1.96 49.01-3.62 47.5-3.26 93.69-17.16c34.79-10.48 67.77-23.4 101.82-37.78q.23-.1.44.05.13 1.49.78 1.87 19.01 11.05 39.36 19.34 1.36.56 1.06 2.26-.37.05-.96.14-8.57 1.3-15.12 3.3-12.96 3.95-25.3 9.01a.321.317 47.351 0 0-.02.58c78.35 40.12 144.43 100.38 190.03 175.99q50.69 84.08 62.45 185.31 1.41 12.18 2.26 35c.17 4.8.89 10.48.67 15q-.79 15.7-.93 20.34-.38 12.96-1.04 20.32-8.82 97.18-55.55 181.29-33.09 59.57-82 106.97-83.64 81.05-195.91 112.81-41.23 11.66-85.31 15.21c-45.54 3.68-93.32 1.07-138.05-9.07q-103.71-23.52-187.21-89.84c-77.71-61.72-133.6-149.09-157.87-244.6-25.19-99.13-16.64-202.7 24.07-296.68 43.23-99.77 121.16-179.4 218.23-228.91q12.53-6.39 17.13-8.59 65-31.12 67.8-32.48c46.03-22.38 90.54-49.82 129.57-83.42 49.12-42.29 87.92-94.76 116.84-153.17 47.2-95.32 67.8-199.31 77.1-305.62a.261.253 2.968 0 0-.26-.28l-168.65-.04q-.32-14.85-.47-29.73-.07-7.48-.42-10.5c-.79-6.79-1.57-13.48-1.24-20.46a.762.752 1.592 0 1 .76-.71h576.94a.17.16 0 0 1 .17.16q.42 16.4-.07 31.06c-.25 7.73-1.85 15.33-1.98 22.92-.13 6.97-1.31 16.46-1.7 21.99q-.51 7.29-1.47 12.74c-2 11.33-3.02 25.58-5.3 36.82-2.24 11.03-4.86 25.88-8.23 39.29q-2.31 9.19-3.02 16.92a4.944 4.935 61.337 0 1-.52 1.78q-2.78 5.37-3.1 7.02-1.2 6.31-3.3 12.17m-254.844-107.446a.56.56-66.171 0 1-.53-.386l-14.554-44.385a.56.56 0 0 0-1.064 0l-14.554 44.385a.56.56-40.424 0 1-.53.386l-46.711.125a.56.56-63.758 0 0-.329 1.012l37.716 27.558a.56.56 58.574 0 1 .203.623l-14.315 44.463a.56.56 59.26 0 0 .861.626l37.863-27.354a.56.56-12.567 0 1 .656 0l37.863 27.354a.56.56.153 0 0 .861-.626l-14.315-44.463a.56.56 22.921 0 1 .203-.623l37.716-27.558a.56.56 50.206 0 0-.329-1.012zM731.54 754.52q-8.2 2.73-14.51 6.38-2.09 1.2-3.35 1.82-2.33 1.16-2.38 1.19-54.43 29.8-97.09 74.81-.76.79-.62 2.34-6.98 5.81-12.47 12.81c-5.01 6.39-10.56 13.22-15.05 19.86-8.48 12.51-16.98 24.73-23.52 37.5-1.81 3.51-3.73 6.14-5.64 9.01a3.597 3.505-22.887 0 0-.51 1.21q-.58 2.68-.76 3.18c-.64 1.81-2.49 2.17-2.99 4.02-1.79 6.61-5.15 13.07-8.29 19.29q-1.51 2.99-3.88 9.77-3.74 10.68-7.55 22.48-.32 1-2.31 5.56a3.895 3.772 62.511 0 0-.28.94q-.77 4.22-2.46 11.23-2.24 9.25-4.52 18.52-1.99 8.1-3.31 18.76c-1.15 9.24-2.97 17.24-2.93 26.13q.03 5.58-.49 24.55-.24 8.44.93 22.27.75 8.83.81 10.5.14 3.56.58 10.51.03.47.25.64.25.19.67.24-.02 5.66 1.16 14.21 4.44 32.14 13.97 60 11.52 33.69 28.79 64.85a.546.545-41.866 0 0 .92.05q.56-.81 1.26-1.06a1.008 1.006-33.408 0 1 1.03.21l3.36 3.11q-2.78 5.03-.25 8.71 10.69 15.56 19.01 28.25.94 1.44 4.54 4.08a2.172 2.097-82.411 0 1 .73.99l.96 2.73a.542.435 20.301 0 0 .09.15c5.4 6.7 11.34 12.84 17.57 20.02q10.17 11.7 15.15 16.01 10.99 9.52 16.77 14.84 2.98 2.75 5.86 4.86 3 2.21 5.97 4.65 7.16 5.88 15.87 12.15 3.09 2.22 9.02 5.32a5.267 5.172 77.527 0 1 .83.54q6.85 5.47 8.44 6.39 10.9 6.27 18.45 10.88c2.23 1.37 4.11-.35 6.24 2.23q1.29 1.55 3.81 2.78 23.21 11.34 45.4 19.07 6.63 2.32 15.17 4.8 10.89 3.17 15.32 4.29 7.03 1.78 14.66.76l2.26 3.15a1.235 1.221 77.333 0 0 .78.5q57.47 10.51 115.49 4.21 5.75-.63 20.54-2.94 3.73.14 7.46-.17.78-.06 2.39-1.99a1.717 1.701 14.041 0 1 .96-.57q2.71-.55 8.08-1.39 2.67-.41 5.85-1.38.99-.3 2.28-.9a3.224 3.19 29.772 0 1 1.05-.28q3.17-.29 6.15-1.46a1.052.05 6.983 0 1 .94.07q.4.04.8-.11 8.52-3.27 21.15-7.27 7.46-2.36 10.9-3.89c7.14-3.18 12.87-5.52 19.92-8.16q2.51-.94 4.61-2.23 2.65-1.63 4.44-2.52 13.38-6.66 25.08-13.47 1.21-.71 1.57-.98a1.085.013-37.436 0 1 .79-.59q10.8-6.39 14.54-9.07 5.74-4.1 28.92-21.2 5.29-3.9 9.33-7.99 13.08-13.21 26.91-24.37.35-.29.71-1.94a1.56 1.538 77.417 0 1 .55-.88q2.63-2.09 3.36-3.08 4.88-6.58 10.81-13.65 20.27-24.18 35.44-51.33.22-.38-.02-1.09.67-.1 1.08-.83 13.94-25.07 24.27-51.81 16.29-42.13 19.25-86.41.91-6.21 1.65-12.09.74-5.81.8-12.13.24-24.5-.06-43.42-.17-10.84-1.59-19.5-2.18-13.36-4.77-27.49-1.97-10.73-9.44-36.42-1.87-6.42-4.36-12.83c-3.24-8.32-7.26-20.17-9.85-25.49q-6.01-12.29-13.38-26.64-3.63-7.08-6.23-10.87-3.73-5.45-6.07-9.9-2.91-5.54-6.13-9.99-13.65-18.88-26.59-34.72-3.21-3.93-7.6-6.77-.48-2.71-3.66-5.96-49.17-50.28-110.62-80.13c-1.69-1.52-4.23-1.85-5.72-2.45q-15.47-6.23-24.34-9.7c-7.58-2.97-14.89-5.02-21.44-7.04-21.95-6.78-44.46-10.98-68.36-13.89-17.24-2.09-29.5-1.42-51.6-1.33q-16.35.06-32.77 2.56-20.67 3.15-40.76 8.12-32.95 8.16-64.18 22.71" data-source="https://football-logos.cc"></path><path fill="#000001" fill-rule="evenodd" d="m1213.586 126.764 46.711.125a.56.56 53.208 0 1 .329 1.012l-37.716 27.558a.56.56 34.362 0 0-.203.623l14.315 44.463a.56.56 44.574 0 1-.861.626l-37.863-27.354a.56.56-45.632 0 0-.656 0l-37.863 27.354a.56.56-65.952 0 1-.861-.626l14.315-44.463a.56.56 5.718 0 0-.203-.623l-37.716-27.558a.56.56-66.588 0 1 .329-1.012l46.711-.125a.56.56-64.945 0 0 .53-.386l14.554-44.385a.56.56 0 0 1 1.064 0l14.554 44.385a.56.56 72.101 0 0 .53.386"></path><path fill="#d60124" fill-rule="evenodd" d="M1129.41 664.17q88.08 50.89 148.33 131.84 65.49 88.01 87.18 194.37c27.31 133.95-2.41 273.46-82.31 384.29-59.47 82.5-142.71 144.4-239.29 177.71-116.01 40.02-244.7 34.25-356.67-15.04-105.44-46.42-191.98-129.18-242.95-233.01q-52.02-105.98-49.84-226.88.15-.43.04-.92l.21-4.32q.05-.38-.02-.69c4.28-121.66 52.81-235.69 136.85-322.81q46.79-48.49 102.76-81.49 40.02-23.59 70.27-48.25c52.75-43.01 97.68-94.79 133.96-152.49q17.35-27.59 28.84-50.3c25.67-50.69 41.68-107.1 49.26-163.42q6.03-44.81 6.29-82.65.25-37.45.09-54.43-.09-8.92-1.03-22.94l168.65.04a.261.253 2.968 0 1 .26.28c-9.3 106.31-29.9 210.3-77.1 305.62-28.92 58.41-67.72 110.88-116.84 153.17-39.03 33.6-83.54 61.04-129.57 83.42q-2.8 1.36-67.8 32.48-4.6 2.2-17.13 8.59c-97.07 49.51-175 129.14-218.23 228.91-40.71 93.98-49.26 197.55-24.07 296.68 24.27 95.51 80.16 182.88 157.87 244.6q83.5 66.32 187.21 89.84c44.73 10.14 92.51 12.75 138.05 9.07q44.08-3.55 85.31-15.21 112.27-31.76 195.91-112.81 48.91-47.4 82-106.97 46.73-84.11 55.55-181.29.66-7.36 1.04-20.32.14-4.64.93-20.34c.22-4.52-.5-10.2-.67-15q-.85-22.82-2.26-35-11.76-101.23-62.45-185.31c-45.6-75.61-111.68-135.87-190.03-175.99a.321.317 47.351 0 1 .02-.58q12.34-5.06 25.3-9.01 6.55-2 15.12-3.3.59-.09.96-.14"></path><path fill="#019537" fill-rule="evenodd" d="M1468.43 234.21c-25.32 90.39-70.12 173.6-134.07 241.4q-40.84 43.28-90.71 78.78-71.68 51.02-154.72 85.52-.4.16-.72.79-.21-.15-.44-.05c-34.05 14.38-67.03 27.3-101.82 37.78q-46.19 13.9-93.69 17.16-24.18 1.66-49.01 3.62-10.96.87-23.23 2.88-34.53 5.66-70.43 18.57c-45.44 16.36-88.32 42.49-124.77 74.41q-31.02 27.17-57.17 62.57c-46.81 63.34-72.85 141.2-75.21 219.64-3.4 113.22 42.55 221.57 125.61 298.66 62.52 58.04 142.44 93.94 227.38 102.4q14.92 1.48 23.07 1.46c15.89-.03 28.05.32 41.99-.54 100.74-6.2 196.39-53.03 263.89-127.34 55.28-60.87 90.09-137.44 99.43-219.12 1.26-10.97 1.69-24.12 2.53-36.3q.28-3.96.22-8.5c-.05-3.93.15-7.61-.24-11.33q-.57-5.51-.77-9.27c-2.54-47.18-13.46-93.04-32.02-135.23q-48.78-110.93-151.99-175.72-48.55-30.47-102.88-45.81-10.33-2.92-13.11-3.67a.328.328 47.729 0 1 .03-.64q25.85-4.3 46.39-9.65 9.49-2.47 12.98-2.73a2.112 1.864-39.1 0 1 .49.02l3.29.56a1.023.748 53.825 0 1 .22.07q7.59 2.88 10.36 4.08c103.8 44.78 185.6 127 227.96 232.04q28.9 71.68 30.28 149.44c.15 8.33-.33 16.86-.28 25.28q.02 4.83-.32 10.13-5.24 81.17-39.38 153.04-44.75 94.21-126.13 156.36c-60.6 46.28-132.67 75.11-208.38 84.12q-25.63 3.04-52.07 2.45c-11.23-.25-20.71-.12-30.3-.96q-93.87-8.14-172.86-52.4c-88.65-49.67-156.43-129-191.5-224.5q-31.84-86.7-23.99-181.17 4.27-51.34 21.52-101.82c45.22-132.28 155.26-234.53 290.42-270.85q18.48-4.96 43.24-10.03c21.4-4.38 64.78-11.8 96.86-20.18 23.83-6.22 45.79-13.97 68.19-24.95q45.29-22.2 85.23-53.91c81.33-64.58 144.95-150.19 182.16-247.54 11.21-29.33 20.18-58.2 25.46-88.42a.532.529 4.689 0 1 .51-.43z"></path><path fill="#fff" fill-rule="evenodd" d="M1040.71 755.54q-5.68-.32-9.43 1.22c-16.71 6.89-35.82 17.73-53.75 29.66-4.96 3.29-8.46 4.57-13.95 3.23q-14.51-3.53-25.53-5.69-20.64-4.06-44.79-4.59-47.65-1.04-93.86 11.42a2.221 2.197 54.556 0 1-1.84-.32q-23.35-16.11-49.95-29.06-.17-.09-5.11-2.28-4.71-2.08-10.96-4.61 31.23-14.55 64.18-22.71 20.09-4.97 40.76-8.12 16.42-2.5 32.77-2.56c22.1-.09 34.36-.76 51.6 1.33 23.9 2.91 46.41 7.11 68.36 13.89 6.55 2.02 13.86 4.07 21.44 7.04q8.87 3.47 24.34 9.7c1.49.6 4.03.93 5.72 2.45"></path><path fill="#000" fill-rule="evenodd" d="M731.54 754.52q6.25 2.53 10.96 4.61 4.94 2.19 5.11 2.28 26.6 12.95 49.95 29.06a2.221 2.197 54.556 0 0 1.84.32q46.21-12.46 93.86-11.42 24.15.53 44.79 4.59 11.02 2.16 25.53 5.69c5.49 1.34 8.99.06 13.95-3.23 17.93-11.93 37.04-22.77 53.75-29.66q3.75-1.54 9.43-1.22 61.45 29.85 110.62 80.13 3.18 3.25 3.66 5.96-3.23 36.17-13.5 70.63c-.51 1.73-.49 3.4.42 4.83q7.31 11.44 12.88 21.55 35.71 64.78 38.68 138.32a1.336 1.319-71.703 0 0 .49.99c14.36 11.95 29.91 24.66 42.13 37.45q4.17 4.37 12.52 14.49-2.96 44.28-19.25 86.41-10.33 26.74-24.27 51.81-.41.73-1.08.83c-22.99 6.06-47.19 8.51-70.27 9.79q-5.59.31-9.27 4.51c-7.58 8.68-12.83 14.99-19.39 21.62q-48.67 49.25-114 74.22a2.83 2.809-.556 0 0-1.64 1.66q-11.38 31.28-27.43 60.04-2.61 4.67-5.15 8.39a1.131 1.112-77.487 0 1-.74.48l-7.08 1.18q-14.79 2.31-20.54 2.94-58.02 6.3-115.49-4.21a1.235 1.221 77.333 0 1-.78-.5l-2.26-3.15c-12.51-19.99-22.22-41.6-30.13-63.91a4.987 4.977-89.074 0 0-2.86-2.96c-52.84-20.74-98.4-53.46-134.25-97.28q-1.42-1.74-3.01-2.67a1.94 1.926-28.273 0 0-.91-.27q-32.45-1.15-63.92-7.26-1.18-.23-4.53-.15l-3.36-3.11a1.008 1.006-33.408 0 0-1.03-.21q-.7.25-1.26 1.06a.546.545-41.866 0 1-.92-.05q-17.27-31.16-28.79-64.85-9.53-27.86-13.97-60-1.18-8.55-1.16-14.21.26-.67.73-1.2 25.13-28.46 54.02-50.53a1.884 1.846-18.203 0 0 .73-1.41q1.55-52.55 21.27-101.82 7.88-19.71 14.9-32.35 5.34-9.62 15.43-26.75a3.362 3.342 52.265 0 0 .33-2.65c-6.86-23.72-11.76-47.7-13.69-72.27q-.14-1.55.62-2.34 42.66-45.01 97.09-74.81.05-.03 2.38-1.19 1.26-.62 3.35-1.82 6.31-3.65 14.51-6.38m283.63 141.01-48.06-89.23a2.251 2.241-6.109 0 0-1.37-1.1c-53.01-14.95-110.01-15.37-162.93.18a2.301 2.122-70.511 0 0-.72.38q-1.17.94-1.94 2.42-18.56 35.44-44.08 82.41-1.92 3.52-1.44 7.18a1.435 1.363-68.725 0 0 .27.66l68.37 93.99a.835.83 71.736 0 0 .67.34h120.79a.852.832 17.769 0 0 .68-.34l69.71-96.25a.604.587-41.37 0 0 .05-.64m-355.22 257.71a.594.577 59.52 0 0 .62.17c47.73-15.22 79.13-24.74 112.25-36.84a1.164 1.154-89.336 0 0 .69-.68c13.88-37.7 25.88-76.27 37.8-115.58a.895.888-55.83 0 0-.15-.8q-8.27-10.7-17.97-23.93-21.07-28.75-51.06-70.43a.866.859 67.622 0 0-.83-.35q-51.85 8.82-98.24 17.76-3.5.67-5.47 3.76c-28.53 44.82-44.58 95.33-48.59 148.27-.19 2.47-.58 3.26 1.33 5.34q22.84 24.91 49.99 52.5 11.52 11.7 19.63 20.81m449.23-.21c21.78-24.18 44.9-47.1 68.49-71.32a2.781 2.776-22.896 0 0 .79-1.94c.08-55.29-19.24-110.25-49.72-156.23a2.311 2.307 78.127 0 0-1.53-1l-99.68-17.82a1.121 1.118-67.168 0 0-1.1.45l-68.73 94.87a.533.512-36.077 0 0-.08.45c10.23 37.3 24.43 77.12 35.33 111.52 1.89 5.97 7.15 6.37 12.13 8.27q2.22.85 84.43 27.18 13.41 4.29 18.71 5.84a.941.925-60.203 0 0 .96-.27M892.1 1322.04c28.64 12.87 59.54 28.51 86.42 41.55 5.82 2.82 8.31 1.33 14.86-1.29q73.99-29.6 123.65-93.1a2.303 2.29 59.966 0 0 .46-1.74l-13.94-99.44a.912.896-85.483 0 0-.62-.74l-112.45-36.62a1.127 1.103-53.575 0 0-.99.16l-97.46 70.9a.936.935-17.843 0 0-.39.76v118.86a.765.762 11.789 0 0 .46.7M738.05 1143.7q-.6-.25-1.03.27-35.03 11.91-70.6 22.38a.958.944 87.591 0 0-.67.74c-5.04 27.63-7.87 51.65-14.59 101.61a1.295 1.256 30.086 0 0 .28.99c35.04 43.19 78.62 76.54 130.64 94.85q2.63.93 4.39.17 13.2-5.66 37.8-17.72 28.81-14.12 51.93-24.93a.797.785 79.157 0 0 .46-.69q.35-7.63.42-15.37.1-10.6.05-98.2 0-2.28-.41-5.77a.88.868 15.55 0 0-.35-.61l-96.15-69.64a3.985 3.941 53.803 0 0-3.55-.57z"></path><path fill="#fff" fill-rule="evenodd" d="M1015.17 895.53a.604.587-41.37 0 1-.05.64l-69.71 96.25a.852.832 17.769 0 1-.68.34H823.94a.835.83 71.736 0 1-.67-.34l-68.37-93.99a1.435 1.363-68.725 0 1-.27-.66q-.48-3.66 1.44-7.18 25.52-46.97 44.08-82.41.77-1.48 1.94-2.42a2.301 2.122-70.511 0 1 .72-.38c52.92-15.55 109.92-15.13 162.93-.18a2.251 2.241-6.109 0 1 1.37 1.1zM613.59 841.06c1.93 24.57 6.83 48.55 13.69 72.27a3.362 3.342 52.265 0 1-.33 2.65q-10.09 17.13-15.43 26.75-7.02 12.64-14.9 32.35-19.72 49.27-21.27 101.82a1.884 1.846-18.203 0 1-.73 1.41q-28.89 22.07-54.02 50.53-.47.53-.73 1.2-.42-.05-.67-.24-.22-.17-.25-.64-.44-6.95-.58-10.51-.06-1.67-.81-10.5-1.17-13.83-.93-22.27.52-18.97.49-24.55c-.04-8.89 1.78-16.89 2.93-26.13q1.32-10.66 3.31-18.76 2.28-9.27 4.52-18.52 1.69-7.01 2.46-11.23a3.895 3.772 62.511 0 1 .28-.94q1.99-4.56 2.31-5.56 3.81-11.8 7.55-22.48 2.37-6.78 3.88-9.77c3.14-6.22 6.5-12.68 8.29-19.29.5-1.85 2.35-2.21 2.99-4.02q.18-.5.76-3.18a3.597 3.505-22.887 0 1 .51-1.21c1.91-2.87 3.83-5.5 5.64-9.01 6.54-12.77 15.04-24.99 23.52-37.5 4.49-6.64 10.04-13.47 15.05-19.86q5.49-7 12.47-12.81M1248.61 1129.89q-8.35-10.12-12.52-14.49c-12.22-12.79-27.77-25.5-42.13-37.45a1.336 1.319-71.703 0 1-.49-.99q-2.97-73.54-38.68-138.32-5.57-10.11-12.88-21.55c-.91-1.43-.93-3.1-.42-4.83q10.27-34.46 13.5-70.63 4.39 2.84 7.6 6.77 12.94 15.84 26.59 34.72 3.22 4.45 6.13 9.99 2.34 4.45 6.07 9.9 2.6 3.79 6.23 10.87 7.37 14.35 13.38 26.64c2.59 5.32 6.61 17.17 9.85 25.49q2.49 6.41 4.36 12.83 7.47 25.69 9.44 36.42 2.59 14.13 4.77 27.49 1.42 8.66 1.59 19.5.3 18.92.06 43.42-.06 6.32-.8 12.13-.74 5.88-1.65 12.09"></path><path fill="#fff" fill-rule="evenodd" d="M659.95 1153.24q-8.11-9.11-19.63-20.81-27.15-27.59-49.99-52.5c-1.91-2.08-1.52-2.87-1.33-5.34 4.01-52.94 20.06-103.45 48.59-148.27q1.97-3.09 5.47-3.76 46.39-8.94 98.24-17.76a.866.859 67.622 0 1 .83.35q29.99 41.68 51.06 70.43 9.7 13.23 17.97 23.93a.895.888-55.83 0 1 .15.8c-11.92 39.31-23.92 77.88-37.8 115.58a1.164 1.154-89.336 0 1-.69.68c-33.12 12.1-64.52 21.62-112.25 36.84a.594.577 59.52 0 1-.62-.17M1109.18 1153.03a.941.925-60.203 0 1-.96.27q-5.3-1.55-18.71-5.84-82.21-26.33-84.43-27.18c-4.98-1.9-10.24-2.3-12.13-8.27-10.9-34.4-25.1-74.22-35.33-111.52a.533.512-36.077 0 1 .08-.45l68.73-94.87a1.121 1.118-67.168 0 1 1.1-.45l99.68 17.82a2.311 2.307 78.127 0 1 1.53 1c30.48 45.98 49.8 100.94 49.72 156.23a2.781 2.776-22.896 0 1-.79 1.94c-23.59 24.22-46.71 47.14-68.49 71.32" data-source="https://football-logos.cc"></path><path fill="#000001" fill-rule="evenodd" d="M272.83 1112.17a.527.524-71.388 0 0 .8-.4l1.82-21.35a.924.916 2.362 0 1 .92-.84h13.48a.83.82 0 0 1 .83.82v37.52a.62.62 0 0 1-.62.62h-49.65a1 1 45 0 1-1-1v-10.96a.768.763 86.14 0 1 .66-.76l9.95-1.4a.369.367-22.983 0 0 .24-.59c-3.37-4.39-7.01-8.73-9.17-12.92q-6.13-11.87-2.8-26.42c3.58-15.62 15.3-26.15 30.43-30.74q25.16-7.65 47.59 5.18c18.98 10.85 24.58 35.34 17.31 55.19q-7.23 19.77-27.42 25.44a.583.579 81.278 0 1-.73-.54l-.78-17.68a1.124 1.12-18.781 0 1 .47-.95c10.87-7.68 19.14-16.82 13.78-30.76-3.12-8.1-9.86-13.87-18.58-16.57q-18.45-5.69-35.82 3.37a4.502 4.293-77.327 0 0-.84.56q-12.14 10.38-9.04 26.4c1.91 9.86 10.05 13.69 18.17 18.78M1527.913 1119.003l-92.803.974a.33.33 33.671 0 1-.333-.327l-.205-20.009a.33.33-64.389 0 1 .162-.288l64.203-37.886a.33.33-88.387 0 0-.171-.614l-64.513.673a.33.33 77.96 0 1-.333-.329v-17.78a.33.33-58.246 0 1 .327-.33l93.563-.974a.33.33 22.824 0 1 .333.327l.195 19.049a.33.33-69.671 0 1-.162.288l-65.415 38.599a.33.33.862 0 0 .168.614h64.981a.33.33 25.182 0 1 .33.33v17.353a.33.33 67.902 0 1-.327.33M394.11 1072.21l-.02-.69q.07.31.02.69M393.9 1076.53q.11.49-.04.92zM1524.314 1181.475c-1.938 12.656-9.006 25.613-20.042 32.033-10.337 6.013-23.907 7.116-35.737 5.305s-24.449-6.924-32.514-15.756c-8.609-9.427-11.476-23.906-9.538-36.562s9.006-25.613 20.041-32.032c10.338-6.014 23.908-7.117 35.738-5.305 11.831 1.811 24.449 6.924 32.513 15.755 8.609 9.428 11.477 23.906 9.539 36.562m-52.435 18.062c15.752 2.28 33.477-2.425 36.133-20.772 2.656-18.35-13.008-27.887-28.76-30.167s-33.478 2.425-36.133 20.772c-2.656 18.35 13.008 27.887 28.76 30.167"></path><path fill="#fff" fill-rule="evenodd" d="M892.1 1322.04a.765.762 11.789 0 1-.46-.7v-118.86a.936.935-17.843 0 1 .39-.76l97.46-70.9a1.127 1.103-53.575 0 1 .99-.16l112.45 36.62a.912.896-85.483 0 1 .62.74l13.94 99.44a2.303 2.29 59.966 0 1-.46 1.74q-49.66 63.5-123.65 93.1c-6.55 2.62-9.04 4.11-14.86 1.29-26.88-13.04-57.78-28.68-86.42-41.55M737.02 1143.97q.5-.02 1.03-.27l38.62-12.49a3.985 3.941 53.803 0 1 3.55.57l96.15 69.64a.88.868 15.55 0 1 .35.61q.41 3.49.41 5.77.05 87.6-.05 98.2-.07 7.74-.42 15.37a.797.785 79.157 0 1-.46.69q-23.12 10.81-51.93 24.93-24.6 12.06-37.8 17.72-1.76.76-4.39-.17c-52.02-18.31-95.6-51.66-130.64-94.85a1.295 1.256 30.086 0 1-.28-.99c6.72-49.96 9.55-73.98 14.59-101.61a.958.944 87.591 0 1 .67-.74q35.57-10.47 70.6-22.38"></path><path fill="#000001" fill-rule="evenodd" d="m342.71 1189.03 2.57 18.32a.897.887-7.722 0 1-.77 1q-20.11 2.75-21.01 2.9c-25 4.15-48.06 7.82-70.86 9.78a.524.511 83.076 0 1-.56-.45l-2.44-17.37a.758.757-8.076 0 1 .64-.85l40.35-5.91a.81.81 72.973 0 0 .68-.92l-5.09-34.73a.635.625 81.806 0 0-.71-.54l-40.48 5.67a.827.817 81.624 0 1-.93-.7l-2.53-18.08a.506.505-8.703 0 1 .42-.57l92.27-13.51a.354.354 26.253 0 1 .4.3l2.59 18.51a.567.557 81.798 0 1-.47.64l-34.31 5.03a.344.344-23.244 0 0-.29.39l5.15 35.15a.789.788-8.283 0 0 .9.67l34.12-5a.324.323 81.738 0 1 .36.27"></path><path fill="#019537" fill-rule="evenodd" d="M738.05 1143.7q-.53.25-1.03.27.43-.52 1.03-.27"></path><path fill="#000001" fill-rule="evenodd" d="M1426.89 1238.68v.02a.294.285-89.076 0 0 .3.32q3.4-.17 3.24 2.1c-.59 8.02-4.25 16.17-7.88 25.19a.655.643 20.845 0 0 .39.85l71.56 24.95a.898.895 18.742 0 1 .56 1.13l-5.66 17.4a.547.541-70.592 0 1-.7.34l-71.84-25.04a.94.94-17.755 0 0-1.2.58l-8.69 24.92a.99.987 18.715 0 1-1.24.61l-13.1-4.27a1.314 1.313-72.98 0 1-.86-1.62q5.74-19.69 15.05-44.58 8.68-23.18 12.87-45.89a.547.535-77.436 0 1 .66-.43l90.38 23.04a.589.58-76.084 0 1 .42.71l-4.5 17.62a1.159 1.157 14.631 0 1-1.42.83q-36-9.53-48.03-12.66-14.97-3.89-29.92-6.42a.336.333 7.137 0 0-.39.3M281.1 1318.85a.495.494 64.882 0 1-.77-.28l-5.31-20.12a1.304 1.298 67.287 0 1 .59-1.45l13.7-8.08a1.482 1.47-17.676 0 0 .72-1.38q-.49-6.33-2.21-11.92-3.08-10.01-6.49-21.33a.755.742-7.245 0 0-.71-.54l-18.58-.24a1.47 1.47-8.325 0 1-1.37-1.02l-5.92-18.33a.54.537 82.801 0 1 .54-.7l98.29 4.53a1.118 1.115 81.533 0 1 1.01.75c2.34 6.87 4.97 14.27 4.95 21.17a1.887 1.868 72.158 0 1-.77 1.52zm17.527-64.849a.3.3 77.087 0 0-.292.385l6.49 22.052a.3.3-81.948 0 0 .454.165l32.51-21.549a.3.3-80.824 0 0-.162-.55z"></path><path fill="#fff" fill-rule="evenodd" d="M1204.01 1268.94q.24.71.02 1.09-15.17 27.15-35.44 51.33-5.93 7.07-10.81 13.65-.73.99-3.36 3.08a1.56 1.538 77.417 0 0-.55.88q-.36 1.65-.71 1.94-13.83 11.16-26.91 24.37-4.04 4.09-9.33 7.99-23.18 17.1-28.92 21.2-3.74 2.68-14.54 9.07a1.085.013-37.436 0 0-.79.59q-.36.27-1.57.98-11.7 6.81-25.08 13.47-1.79.89-4.44 2.52-2.1 1.29-4.61 2.23c-7.05 2.64-12.78 4.98-19.92 8.16q-3.44 1.53-10.9 3.89-12.63 4-21.15 7.27-.4.15-.8.11a1.052.05 6.983 0 0-.94-.07q-2.98 1.17-6.15 1.46a3.224 3.19 29.772 0 0-1.05.28q-1.29.6-2.28.9-3.18.97-5.85 1.38-5.37.84-8.08 1.39a1.717 1.701 14.041 0 0-.96.57q-1.61 1.93-2.39 1.99-3.73.31-7.46.17l7.08-1.18a1.131 1.112-77.487 0 0 .74-.48q2.54-3.72 5.15-8.39 16.05-28.76 27.43-60.04a2.83 2.809-.556 0 1 1.64-1.66q65.33-24.97 114-74.22c6.56-6.63 11.81-12.94 19.39-21.62q3.68-4.2 9.27-4.51c23.08-1.28 47.28-3.73 70.27-9.79M570.36 1271.41q3.35-.08 4.53.15 31.47 6.11 63.92 7.26a1.94 1.926-28.273 0 1 .91.27q1.59.93 3.01 2.67c35.85 43.82 81.41 76.54 134.25 97.28a4.987 4.977-89.074 0 1 2.86 2.96c7.91 22.31 17.62 43.92 30.13 63.91q-7.63 1.02-14.66-.76-4.43-1.12-15.32-4.29-8.54-2.48-15.17-4.8-22.19-7.73-45.4-19.07-2.52-1.23-3.81-2.78c-2.13-2.58-4.01-.86-6.24-2.23q-7.55-4.61-18.45-10.88-1.59-.92-8.44-6.39a5.267 5.172 77.527 0 0-.83-.54q-5.93-3.1-9.02-5.32-8.71-6.27-15.87-12.15-2.97-2.44-5.97-4.65-2.88-2.11-5.86-4.86-5.78-5.32-16.77-14.84-4.98-4.31-15.15-16.01c-6.23-7.18-12.17-13.32-17.57-20.02a.542.435 20.301 0 1-.09-.15l-.96-2.73a2.172 2.097-82.411 0 0-.73-.99q-3.6-2.64-4.54-4.08-8.32-12.69-19.01-28.25-2.53-3.68.25-8.71"></path><path fill="#000001" fill-rule="evenodd" d="M351.98 1318.9a.324.32-82.466 0 0-.37-.49c-20.5 7.52-37.14 16.45-58.28 26.56a.848.846 65.451 0 1-1.15-.43l-6.85-15.86a.233.228-25.419 0 1 .11-.3q49.53-23.72 52.37-25.06 17.91-8.46 32.01-14.18a.699.697-25.705 0 1 .86.3q4.66 7.96 6.85 17.1a1.274 1.268-37.173 0 1-.13.93c-11.73 20.49-26.76 39.03-41.71 61.28a.197.194-85.083 0 0 .24.29l57.6-27.54a1.142 1.138-26.681 0 1 1.49.49l7.89 14.65a.569.568 62.784 0 1-.25.78l-84.02 40.16a.601.596 63.202 0 1-.78-.26l-8.14-15.11a3.171 3.151-41.728 0 1 .2-3.31zM1483 1331.53l-9.24 18.54a.64.633-73.373 0 1-.64.35l-19.65-2.26a.778.777 16.151 0 0-.8.44l-13.19 27.74a2.768 2.757 44.406 0 0 .03 2.43c2.67 5.19 7.61 9.39 12.26 12.97a1.597 1.587 31.833 0 1 .46 1.94l-8.51 17.9a.42.42 38.533 0 1-.71.08c-5.17-6.63-11.97-12.63-18.43-19.24q-32.79-33.58-50.38-51.32a.632.624 34.548 0 1-.13-.68c3.63-8.46 5.98-14.2 9.47-19.61a1.58 1.564-70.362 0 1 1.5-.72l97.86 11.26a.129.127-74.656 0 1 .1.18m-56.7 34.58 9.46-19.89a.363.358-72.475 0 0-.26-.51l-35.46-6.34a.439.436 76.197 0 0-.42.7c7.52 9.71 16.24 17.28 25.92 26.19a.482.481-56.077 0 0 .76-.15M1347.32 1385.635l9.17-14.78a1.1 1.1-10.11 0 1 1.515-.355l77.339 47.981a1.1 1.1-28.828 0 1 .413 1.407l-7.519 15.811a1.1 1.1 63.906 0 1-1.573.462l-78.99-49.011a1.1 1.1-23.344 0 1-.355-1.515M323.22 1406.63l95.58-23.72a.71.696-23.737 0 1 .74.28c3.55 5.12 11.33 15.2 10.18 19.42q-.44 1.59-1.1 2.52c-17.59 24.69-38.7 51.74-56.74 75.67a.751.744-41.529 0 1-1.24-.07l-10.23-17.34a.507.499-40.583 0 1 .05-.59l11.97-14.39a.891.874-42.263 0 0 .06-1.05l-18.78-28.1a.6.6-24.726 0 0-.65-.24l-18.93 5a.583.571 65.572 0 1-.62-.24l-10.72-16.04a.729.728 66.204 0 1 .43-1.11m83.159-.834a.73.73-5.237 0 0-.748-1.173l-34.239 9.041a.73.73-36.333 0 0-.442 1.077l11.083 18.786a.73.73 10.892 0 0 1.19.096zM1370.78 1406.96a.393.387 25.317 0 1 .22.6l-10.91 15.56a1.146 1.121 20.853 0 1-1.08.47q-7.28-1.01-13.76-.69c-7.06.35-13.08 8.01-15.06 14.34-3.67 11.71 1.93 19.75 10.14 27.95q8.63 8.63 20.42 12.55c11.07 3.68 20.72-.85 26.39-10.64 4.42-7.64 1.05-15.25-1.9-22.88a3.52 3.502 46.444 0 1 .06-2.65q3.7-8.59 11.59-12.45a.541.539-29.516 0 1 .69.19c5.17 7.92 9.42 15.9 9.99 24.92.85 13.53-7.8 28.14-18.79 36.19q-16.95 12.4-36.16 5.57-24.13-8.58-36.7-29.6-5.16-8.63-5.43-18.64c-.64-24.23 21.58-47.72 46.57-43.6q8.33 1.38 13.72 2.81M415.46 1529.88a.29.276-43.569 0 1-.4 0l-13.17-13.6a.481.474-44.579 0 1 .01-.68l65.52-63.49a1.723 1.72 42.154 0 1 2.26-.11q4.57 3.64 7.97 7.1 20 20.35 37.33 39.38a.828.821-43.237 0 1-.04 1.15l-10.31 10a1.082 1.075 45.945 0 1-1.52-.03l-29.5-30.44a2.78 2.78-29.016 0 0-2.69-.77q-4.36 1.11-6.72 3.32-4.29 4.03-7.52 9.52a.834.831 38.321 0 0 .12 1.01l26.43 27.27a.392.383-46.769 0 1 .01.52l-9.78 11.77a.913.91-47.022 0 1-1.35.05l-27.58-28.46a.617.612 48.153 0 0-.84-.05c-4.07 3.41-8.51 7.14-11.97 10.55q-14.12 13.95-16.26 15.99M1327.745 1490.664c8.258 8.655 15.125 20.404 16.117 32.316 1.06 12.716-5.508 25.926-14.767 34.76-9.258 8.834-22.762 14.776-35.414 13.121-11.853-1.55-23.267-8.96-31.525-17.614s-15.124-20.404-16.117-32.316c-1.059-12.716 5.509-25.926 14.767-34.76 9.259-8.834 22.762-14.776 35.415-13.121 11.852 1.55 23.266 8.96 31.524 17.614m-63.965 23.996c2.52 15.07 12.57 28.12 26.13 35.05q5.21 2.66 9.17 2.97c8.68.68 16.67-3.74 21.71-10.59q7.53-10.25 2.77-22.07-7.53-18.69-25.37-26.6-7.66-3.39-13.92-1.85c-10.41 2.56-17.66 11.92-20.43 22.02a2.467 2.432-42.202 0 0-.06 1.07M549.268 1521.792c10.167 7.767 18.138 20.177 18.475 32.93.316 11.946-5.223 24.372-12.484 33.876-7.26 9.503-17.793 18.115-29.402 20.951-12.393 3.027-26.462-1.401-36.628-9.168s-18.138-20.177-18.475-32.93c-.316-11.946 5.224-24.372 12.484-33.876s17.793-18.115 29.402-20.951c12.393-3.027 26.462 1.401 36.628 9.168m-9.509 54.733c9.616-12.612 14.106-30.326-.584-41.526-14.692-11.202-30.585-2.183-40.201 10.43s-14.106 30.326.584 41.526c14.692 11.202 30.585 2.182 40.201-10.43M1227.99 1552.25q-13.29-8-25.9 1.89-5.33 4.19-6.51 10.9c-.84 4.76 1.49 6.91 5.13 10.64a1.273 1.243 61.857 0 0 1.14.36c10.62-2.07 17.15-5.24 30.26-10.39 6.3-2.48 18.63-5.61 24.67-2.36 14.01 7.53 21.79 25.3 12.21 39.89-8.24 12.55-20.6 22.22-35.3 24.85-7.62 1.37-15.18 1.08-21.65-3.83q-3.81-2.89-8.53-7.52a.765.763 50.42 0 1 .11-1.18l13.45-8.99a.994.978-47.402 0 1 1-.05c5.23 2.83 9.34 4.72 15.58 3.64q15.48-2.68 21.52-16.91c1.32-3.13-1-8.47-4.04-10.4-6.39-4.05-25.46 4.99-34.66 8.69-12.55 5.04-24.72 4.48-33.11-6.84-6.86-9.25-8.06-20.77-1.98-30.79q9.93-16.37 27.7-21.48c12.99-3.73 25.76-.72 33.81 10.66a.719.713-33.169 0 1-.22 1.03l-13.89 8.2a.776.769-44.028 0 1-.79-.01M624.31 1570.544c11.211 6.181 20.936 17.282 23.158 29.853 2.081 11.776-1.562 24.894-7.341 35.373-5.778 10.48-14.927 20.561-25.996 25.086-11.817 4.831-26.395 2.531-37.606-3.651-11.211-6.181-20.936-17.282-23.158-29.853-2.08-11.776 1.562-24.894 7.341-35.373 5.778-10.48 14.927-20.561 25.996-25.086 11.817-4.831 26.395-2.531 37.606 3.651m-46.553 31.108c-7.562 13.997-9.249 32.25 7.056 41.059 16.303 8.807 30.645-2.608 38.207-16.605s9.249-32.25-7.056-41.059c-16.303-8.808-30.645 2.608-38.207 16.605M1128.23 1656.11a.666.66 51.154 0 1 .11-1.06l13.84-8.17a1.051 1.044-37.632 0 1 1.27.16c8.08 7.98 20.38 8.09 29.7 2.17q12.15-7.7 8.55-21.62a.792.783 85.587 0 0-.67-.58c-19.72-2.36-37.1 9.16-56.28 5-8.75-1.9-14.41-15.36-16.31-22.62-2.31-8.83 6.82-20.92 13.05-26.08q14.74-12.21 33.22-10.77c9.93.77 17.8 6.44 23.29 14.47a.677.676-29.92 0 1-.27 1l-14.9 7.13a1.153 1.138 52.422 0 1-1.24-.17q-9.23-7.86-21.2-4.04c-5.65 1.81-13.23 7.56-13.12 14.15q.07 4.64 1.87 8.59a1.145 1.133 77.236 0 0 1.05.67q9.27-.05 18.18-2.01c14.05-3.09 20.13-4.72 27.8-5.88a6.201 5.967 43.899 0 1 1.77 0c12.98 1.98 22.28 12.26 23.12 25.27 1.42 21.92-22.42 35.59-40.76 38.96q-16.28 3-27.06-9.18-3.61-4.08-5.01-5.39M723.27 1627.97l-7.64 2.02a3.7 3.695-41.947 0 1-2.28-.12l-20.06-7.64a.776.763 20.774 0 0-1 .44l-27.24 71.51a.578.571 21.807 0 1-.76.32l-17.02-7.39a.688.681-67.797 0 1-.36-.87l27-70.88a.699.697 20.322 0 0-.42-.91l-20.23-7.06a2.3 2.297 85.166 0 1-1.29-1.09l-3.28-6.09a1.012 1.01-40.858 0 1 .08-1.09q2.46-3.27 3.87-7.95a1.204 1.187 13.888 0 1 1.38-.82q4.38.87 7.78 2.09 3.17 1.14 47.66 18.07 16.08 6.12 24.94 8.07 13.61 3 21.09 4.45c8.62 1.67 17.12 4.16 24.9 8.05 11.04 5.52 13.76 18.14 9.67 28.96q-3.41 9-12.07 13.19a.481.479 52.239 0 0-.1.8c11.45 9.69 9.24 26.05.15 36.59q-9.05 10.48-23.26 8.26-12.93-2.03-18.69-3.4-29.45-7.02-32.72-7.49a.522.517-80.015 0 1-.43-.62c5.77-29.13 13.44-49.78 15.64-75.34a1.93 1.92-8.919 0 1 1.18-1.61q2.88-1.19 3.77-1.95a.289.289 17.559 0 0-.26-.5m11.37 27.74a.59.588-78.385 0 0 .44.67q9.23 2.16 14.5 3.48c5.92 1.48 12.92 2.66 18.8.57a2.591 2.585-78.752 0 0 1.06-.71q3.5-3.88 3.65-9.51a4.487 4.479 19.232 0 0-1.79-3.7c-9.64-7.24-21.45-7.93-33.06-9.02a.364.351-81.482 0 0-.39.3zm-3.59 16.03a.522.514-76.362 0 0-.63.39l-5.27 23.82a.561.551 12.416 0 0 .43.66q9.84 2.04 19.28 4 7.91 1.64 15.36 1.01a2.118 2.102-76.379 0 0 1.61-.99c3.97-6.4 8.2-16.29-.78-20.7q-5.75-2.82-11.25-3.99-13.61-2.9-18.75-4.2M1048.18 1713.24a.562.557-9.506 0 1-.75-.53l1.31-98.8a.285.269 82.424 0 1 .18-.25q10.51-3.94 21.3-6.39a1.377 1.361 63.972 0 1 1.37.48q21.58 27.08 38.87 49.29 11.66 14.99 20.56 27.49a.73.725 63.917 0 1-.38 1.12q-2.41.7-13.95 4.24-2.87.89-4.97 1.01a.815.8-19.549 0 1-.71-.33l-11.19-15.14a.631.626 61.748 0 0-.72-.22l-31.63 11.16a.815.811-9.406 0 0-.54.75l-.25 18.74a1.24 1.24-9.52 0 1-.82 1.15zm19.272-82.106a.46.46 8.788 0 0-.832.271v37.245a.46.46-6.466 0 0 .613.434l21.555-7.609a.46.46-44.362 0 0 .219-.704zM940.1 1636.25l17.79-2.61a.932.929 81.157 0 1 1.05.77l11.64 74.43a.891.89 81.179 0 0 1.01.74l45.02-7.05a.385.385-49.418 0 1 .44.32l2.37 16.21a.595.585-8.746 0 1-.5.67l-64.84 9.5a.981.976-6.778 0 1-1.11-.87q-.78-8.11-2.15-17.37-4.2-28.58-10.99-70.9-.13-.8-.23-3.24a.576.572-5.397 0 1 .5-.6M875.66 1732.94a.351.348-7.561 0 1-.34.44h-19.26a.881.87-7.238 0 1-.85-.65l-5.28-20a.34.335-4.797 0 0-.3-.25l-33.68-2.89a.611.602 13.638 0 0-.6.36l-7.8 17.95a.954.952-76.051 0 1-.96.58l-19.17-1.64a.39.389 14.913 0 1-.32-.55c17.5-39.11 26.16-59.72 41.08-89.83a1.48 1.464 15.322 0 1 1.44-.81l20.34 1.74a.73.721-4.608 0 1 .63.53zm-52.599-39.003 21.943 1.511a.363.357-3.972 0 0 .378-.428l-7.085-35.267a.439.435-35.3 0 0-.804-.134c-6.27 10.54-10.113 21.413-14.849 33.667a.482.48 12.426 0 0 .417.651M897.63 1638.47a.36.35 87.498 0 1 .36.34l2.48 75.11a.85.84 87.967 0 0 .87.82l45.09-1.49a1.01 1.01-47.039 0 1 1.04.98l.52 15.74a.571.561 87.973 0 1-.54.59q-32.21 1.06-65.09.35a.58.58 88.938 0 1-.57-.55l-3.97-90.45a.78.78-54.631 0 1 .75-.81z" data-source="https://football-logos.cc"></path><!-- source: https://football-logos.cc --></svg>