<svg xmlns="http://www.w3.org/2000/svg" viewBox="0 0 840 840"><metadata xmlns:fl="https://football-logos.cc/italy/inter">dl1_8b401df8fab1836bfe1614e684546b8f4e03134e0ad91c05e8b2030fba89cc7d</metadata><!-- Source: https://football-logos.cc --><circle cx="420" cy="420" r="420" data-source="https://football-logos.cc"></circle><circle cx="420" cy="420" r="360" fill="#00239C" data-source="https://football-logos.cc"></circle><path fill="#FFF" d="m645.2 221.8-28.4 60.8C644 321.6 660 368.9 660 420c0 42.8-11.2 82.9-30.8 117.7l7.8 89.5c51.4-53.8 83-126.8 83-207.1 0-76.1-28.2-145.4-74.8-198.3M450.4 658.1V181.9c25.2 3.2 49.2 10.3 71.3 20.7l25.4-54.4C508.5 130.1 465.4 120 420 120s-88.5 10.1-127.1 28.2l25.4 54.4c22.4-10.5 46.7-17.6 72.2-20.8v476.4c-23.8-2.9-46.6-9.4-67.7-18.7l-5.5 62.5c32 11.6 66.6 18 102.7 18 36.2 0 71-6.4 103.1-18.2l-5.5-62.5c-20.9 9.4-43.5 15.8-67.2 18.8M194.8 221.8C148.2 274.7 120 344 120 420c0 80.5 31.7 153.6 83.3 207.4l7.8-89.3C191.3 503.3 180 463 180 420c0-51.1 16-98.4 43.2-137.3zm382.9 72.7 44.7-95.9c-15.1-13.8-31.5-26-49.2-36.5l-92.6 198.8v142l46.4-99.5 25 286.1c20.4-10 39.5-22.3 57-36.5zm-217.1 69.7-94.1-201.9c-17.6 10.5-34.1 22.8-49.1 36.6l44.9 96.3-.1 1.7L231.1 653c17.5 14.2 36.6 26.5 57 36.5l25-285.6 47.7 102.3v-142z" data-source="https://football-logos.cc"></path><!-- source: https://football-logos.cc --></svg>