<svg xmlns="http://www.w3.org/2000/svg" id="Livello_2" version="1.1" viewBox="0 0 662.2 662.2"><metadata xmlns:fl="https://football-logos.cc/italy/napoli">dl1_6247c8c5de79f837666e58314eb4fd1767b34b972256dc357663b7c73245bcc1</metadata><!-- Source: https://football-logos.cc --><defs data-source="https://football-logos.cc"><style>.st0{fill:#fff}</style></defs><g id="Livello_1-2" data-source="https://football-logos.cc"><g id="Disegno_3"><path d="M330.8 0c183.1 0 331.4 148.7 331.4 331.1S513.9 662.2 330.8 662.2 0 513.4 0 331.1 148.3 0 330.8 0" style="fill:#00abe7"></path><path d="M639.2 331.1C639.2 161.2 500.8 23 330.8 23S22.4 161.2 22.4 331.1s138.4 308.1 308.4 308.1 308.4-138.3 308.4-308.1M330.8 9.9c177.6 0 321.4 144.2 321.4 321.2S508.4 652.3 330.8 652.3 9.9 508 9.9 331.1 153.7 9.9 330.8 9.9" class="st0"></path><path d="M96.5 331.1c0-129.5 105.1-234.6 234.3-234.6s234.8 105.1 234.8 234.6-105.1 234.1-234.8 234.1S96.5 460.1 96.5 331.1m234.3-224.8c-123.7 0-224.4 100.7-224.4 224.8s100.8 224.3 224.4 224.3 225-100.7 225-224.3-100.8-224.8-225-224.8" class="st0"></path><path d="M381.5 195v12h8.7c15.8 0 28.3 12.5 28.3 27.8v123c0 1.1-1.7 2.2-2.7 1.1L279 195.1h-83.9v12h3.8c4.9 0 9.8 2.2 13.1 6l4.9 5.5 12.5 15.2v190.5c0 14.1-10.9 25.1-25.1 25.1H195v10.3h89.9v-10.3h-7.1c-16.3 0-30-13-30-29.9V258.4c0-1.1 1.1-1.1 1.7-.5l174.9 209h11.5V232.3c0-14.1 11.5-25.1 25.1-25.1h6v-12h-85.6v-.1Z" class="st0"></path></g></g><!-- source: https://football-logos.cc --></svg>