<svg version="1.1" id="Layer_1" xmlns:x="ns_extend;" xmlns:i="ns_ai;" xmlns:graph="ns_graphs;" xmlns="http://www.w3.org/2000/svg" xmlns:xlink="http://www.w3.org/1999/xlink" x="0px" y="0px" viewBox="0 0 154 87.5" style="enable-background:new 0 0 154 87.5;" xml:space="preserve">
 <style type="text/css">
  .st0{fill:none;}
	.st1{fill:#FFFFFE;}
	.st2{fill:#253B73;}
	.st3{fill:#B52532;}
 </style>
 <metadata>
  <sfw xmlns="ns_sfw;">
   <slices>
   </slices>
   <sliceSourceBounds bottomLeftOrigin="true" height="87.5" width="154" x="-103.2" y="2.3">
   </sliceSourceBounds>
  </sfw>
 </metadata>
 <g>
  <path class="st0" d="M102,11h-2V40h1.5c4.2,0,5.3-1.6,5.3-6.4V16.9C106.8,12.9,105.6,11,102,11z">
  </path>
  <path class="st0" d="M137,7.6h-0.5l-1.7,37.5l-1,16.1h6.3l-1-16.1C138.7,38.7,137.7,18.5,137,7.6z">
  </path>
  <path class="st0" d="M101.5,49.5h-1.5v27h2c3.7,0,4.8-2.1,4.8-6.2V55.4C106.8,51.1,105.5,49.5,101.5,49.5z">
  </path>
  <path class="st1" d="M7.3,87.5c-4,0-7.3-3.3-7.3-7.3V7.3c0,0,0,0,0,0C0,3.3,3.3,0,7.3,0h12.3c-2.4,0.9-2.7,1.9-2.8,5.2
		c-0.4,0-1.2-0.3-1,1.7c0,0,0.2,1.3,0.7,1.1c-0.5,3.5,0.1,3.8-3.6,4l-0.2,0.3c-3.6,0.4-4.8-0.1-7.9,6.1c0,0-0.8,1.9-1,2.7
		c-0.8,1.6-2.6,5.1-3.1,7.4c-0.2,0.8-0.5,1,0,2.1c0.7,1.6-0.5,2,3.6,1.9v0.9c0,0-1.1,0.9-1.3,1.5c-0.2,0.6-0.9,3.4-0.8,4.7
		c0.1,3.5,2.9,6.5,3.8,10l1.9,0.3c1.1,2.4,5.7,9,6.7,9.9c0.2,0.6,1.4,1.4,2.1,2.1c0.6,0.5,3.9,4.2,7.9,6.5c0,0,0.6,1.3,1,2.4
		c-1.3,1.1,1.2,3,2,6.2c0,0.4-0.7,0.9,0.4,1.9v0c-0.1,4.8-1.5,7.4,0.9,8.7H7.3z M36.1,80.2c0,3.6-2.6,6.6-6.1,7.2h-0.1
		c3.2-1.9,1.2-5.6,0.6-7.8c0-0.1,0.1-0.3,0.1-0.4c0.2-0.3-0.2-1-0.2-1c-0.4-0.3-0.5-2.1-0.7-3c-0.3-1.4,0.6-3.7,0.6-4.5
		c0-0.8-0.6-1.9-1.7-3.3c-0.3-0.3-1.1-7.1-1.8-8.9c-1-2.4-1.3-2-2.5-4.8c-0.9-2-0.2-5-2.3-11.8c0,0,0.5-0.4,0.5-0.4S21,35.6,20.5,34
		c-0.5-1.6-1.5-1.7-1.5-1.7s0-0.7,0-0.8c0.1-0.3,2-5.2,2.1-5.4c0-0.1,2.8-2,2.8-1.7c0.2,1.2,1.3,7.4,1.7,8.4c0.5,1,2.1,4,2.8,5.9
		c-2.9,0.7-5,3.3-5,6.3c0,0,0,0,0,0c0,3.6,2.9,6.5,6.5,6.5c2.7,0,5.1-1.6,6-4.1V80.2z M36.1,42.5c-0.2-0.5-0.5-1-0.8-1.5
		c0-1-1-1-1.3-1.3c-0.3-0.3,0.3-0.5-1.6-0.9c-0.3-0.2-0.6-2.9-0.6-2.9c-0.3-1.7-0.9-2.9-1.8-4.7c-0.5-0.9-0.7-3.8-1.2-5.3
		c0.3-6.8-1.9-8.7-3.6-9.8c-0.7-0.4-1-0.7-1.7-1.1l0-0.3c-0.5-0.5-1.5-1-2.4-1.4c-0.3-0.3-0.1-0.8,0-1.1c0.6-0.1,1.3-1.4,2-2.7
		c0.5,0,0.7-0.5,0.8-0.7c0.5-0.9,1.1-1.6,0.4-2.1c1.7-3,0.6-5-0.3-5.1c-0.4-0.7-1-1.2-2.1-1.6h7c4,0,7.3,3.3,7.3,7.3V42.5z">
  </path>
  <path class="st2" d="M72.1,12.7c0,14.6,2.1,42.3,3.7,59.4L65.2,0H49.2v87.5h10.3l0,0V62.4c0-10.5-0.6-29.3-1.5-45l9.8,70.1h14.6V0
		H72.1V12.7z">
  </path>
  <path class="st2" d="M102.9,0H88.3v87.5h14.6c9.3,0,15.7-5.4,15.7-17.4V57.4c0-6.7-2.5-10.7-5.9-12.9c3.4-2.1,5.9-6.1,5.9-14.1
		V17.5C118.6,5.3,112.6,0,102.9,0z M106.8,70.2c0,4.2-1.1,6.2-4.8,6.2h-2v-27h1.5c3.9,0,5.3,1.6,5.3,5.9V70.2z M106.8,33.6
		c0,4.8-1.1,6.4-5.3,6.4h-1.5V11h2c3.6,0,4.8,1.8,4.8,5.9V33.6z">
  </path>
  <path class="st2" d="M145.7,0H129l-8.6,87.5h11.9l1-16.4h7.4l1,16.4H154L145.7,0z M133.8,61.2l1-16.1l1.7-37.5h0.5
		c0.7,10.9,1.7,31.1,2.1,37.5l1,16.1H133.8z">
  </path>
  <path class="st3" d="M30,51.4c-3.6,0-6.5-2.9-6.5-6.5c0,0,0,0,0,0c0-3.1,2.1-5.6,5-6.3c-0.7-1.9-2.3-4.9-2.8-5.9
		c-0.4-1-1.5-7.2-1.7-8.4c-0.1-0.3-2.8,1.6-2.8,1.7c-0.2,0.2-2.1,5.1-2.1,5.4c0,0.2,0,0.8,0,0.8s0.9,0.1,1.5,1.7
		c0.5,1.6,2.2,7.6,2.2,7.6S22.2,42,22.2,42c2.1,6.9,1.3,9.8,2.3,11.8c1.2,2.8,1.5,2.5,2.5,4.8c0.7,1.7,1.5,8.6,1.8,8.9
		c1.1,1.4,1.7,2.5,1.7,3.3c0,0.8-0.9,3.2-0.6,4.5c0.2,0.8,0.3,2.6,0.7,3c0,0,0.3,0.7,0.2,1c0,0.1-0.1,0.3-0.1,0.4
		c0.6,2.2,2.6,5.8-0.6,7.8H30c3.5-0.6,6.1-3.6,6.1-7.2V47.3C35.1,49.8,32.7,51.4,30,51.4z">
  </path>
  <path class="st3" d="M28.8,0h-7C23,0.4,23.6,0.9,24,1.6c0.9,0.1,2,2.1,0.3,5.1c0.7,0.5,0.2,1.2-0.4,2.1c-0.2,0.3-0.3,0.8-0.8,0.7
		c-0.6,1.3-1.4,2.6-2,2.7c-0.2,0.2-0.3,0.8,0,1.1c0.8,0.4,1.9,0.9,2.4,1.4l0,0.3c0.7,0.4,1,0.7,1.7,1.1c1.8,1.1,3.9,3.1,3.6,9.8
		c0.5,1.5,0.7,4.4,1.2,5.3c0.9,1.8,1.5,3,1.8,4.7c0,0,0.3,2.7,0.6,2.9c1.8,0.4,1.3,0.6,1.6,0.9c0.3,0.4,1.3,0.3,1.3,1.3
		c0.4,0.5,0.6,1,0.8,1.5V7.3C36.1,3.3,32.8,0,28.8,0z">
  </path>
  <path class="st2" d="M27.9,78.8L27.9,78.8c-1.2-1-0.4-1.5-0.4-1.9c-0.8-3.2-3.3-5.1-2-6.2c-0.3-1.1-1-2.4-1-2.4
		c-3.9-2.3-7.3-5.9-7.9-6.5c-0.7-0.8-1.9-1.5-2.1-2.1c-0.9-0.9-5.6-7.5-6.7-9.9L6,49.6c-0.9-3.5-3.7-6.4-3.8-10
		c0-1.3,0.6-4.2,0.8-4.7c0.2-0.6,1.3-1.5,1.3-1.5v-0.9c-4.1,0.1-2.9-0.3-3.6-1.9c-0.5-1.1-0.1-1.4,0-2.1c0.6-2.3,2.4-5.8,3.1-7.4
		c0.2-0.8,1-2.7,1-2.7c3.1-6.2,4.2-5.8,7.9-6.1l0.2-0.3c3.7-0.2,3.1-0.4,3.6-4c-0.5,0.2-0.7-1.1-0.7-1.1c-0.3-2,0.6-1.6,1-1.7
		c0.1-3.3,0.4-4.3,2.8-5.2H7.3C3.3,0,0,3.3,0,7.3c0,0,0,0,0,0v72.9c0,4,3.3,7.3,7.3,7.3h21.5C26.4,86.2,27.8,83.6,27.9,78.8z">
  </path>
 </g>
</svg>