<svg xmlns="http://www.w3.org/2000/svg" viewBox="0.1 0 224.71 164.04"><metadata xmlns:fl="https://football-logos.cc/new-zealand/new-zealand-national-team">dl1_14ad7e5d219665c50a0cb73cd51d586ec07cb72d70dd747631cc49bc0ddf799a</metadata><!-- Source: https://football-logos.cc --><path d="M219.811 4.091c3.37 7.678-3.486 14.158-6.739 19.042 2.294.471 4.552.988 6.332 1.98-1.317 3.627-7.236 1.772-10.693 3.173-2.006.808-2.24 2.15-3.579 3.565 1.671.708 4.382.382 5.957 1.19-2.65 2.373-6.18 3.875-11.108 3.97-1.506 1.138-2.728 2.561-3.563 4.357 2.626-.137 4.936-.613 7.921-.39-1.318 1.898-2.562 3.441-5.148 4.358-3.913 1.392-9.302-.382-10.71 3.168 4.301.203 7.416 1.581 10.311 3.184-2.129 2.113-6.682 3.174-11.107 3.166-3.323 0-6.435-1.104-7.528 1.98 4.963 1.651 11.036 2.185 13.484 6.35-4.213.707-9.497 1.24-14.28.793-3.666-.347-6.854-2.504-9.115-1.19 4.841 3.081 10.557 5.295 13.077 10.707-6.805 1.964-13.652-.275-18.235-3.174-1.738-1.09-3.278-3.623-5.55-1.978 2.114 2.691 5.587 3.89 7.932 6.344 2.191 2.287 3.196 5.31 5.15 7.93-6.24 1.233-12.034-.593-16.652-2.779-3.232-1.523-5.783-3.7-8.727-5.15.21 1.875 3.14 3.657 5.16 5.15 4.068 3.031 8.673 6.084 10.701 11.502-13.032 1.278-19.173-4.393-26.176-9.51-1.144-.845-2.397-3.269-4.36-1.593 2.185 3.405 6.991 5.41 10.31 8.73 3.26 3.253 5.002 7.763 7.93 11.098-11.502.648-19.367-5.246-26.172-10.709-1.032-.83-2.37-1.97-3.565-2.77-1.217-.823-2.216-2.187-3.964-1.192.324 2.323 3.671 3.465 5.941 5.154 6.48 4.798 13.092 10.902 16.258 19.431-15.873-1.703-26.299-8.853-33.697-19.036-2.015.247-3.492 1.011-5.159 1.587 10.204 6.314 19.621 13.43 25.378 24.196-17.699-.548-29.276-7.223-35.293-19.432-2.363.007-3.423 1.328-5.549 1.578 10.522 6.402 19.28 16.67 25.376 26.177-16.92-2.38-30.125-8.482-38.466-19.428-1.473.771-2.546 1.94-4.367 2.373 11.258 7.39 22.45 14.833 29.348 26.582-18.582.173-32.163-8.01-42.826-17.063a13.9 13.9 0 0 0-3.565 1.985c13.328 8.482 28.13 15.481 33.7 31.731-17.262.275-34.206-6.104-44.02-16.653-.923-.996-2.545-3.075-4.358-5.168-1.343-1.558-4.185-4.732-4.366-4.747-1.767-.174-6.69 6.15-7.533 7.13-6.834 8.023-11.46 18.04-15.464 28.156-1.017-2.756-2.02-5.83-2.778-9.12-.728-3.222-2.063-7.695-1.19-10.709.476-1.617 3.6-3.753 5.548-5.542 5.462-5.008 12.146-11.618 16.267-16.667-7.13-18.962-5.5-49.242 8.325-59.488 5.125 13.263 10.103 28.765 9.917 46.011 1.696.243 1.614-1.292 3.173-1.192-.734-5.303-1.462-10.528-1.19-15.868.888-17.362 6.018-34.053 15.465-42.827 3.246 13.234 5.022 30.963 3.167 46.795 1.637.693 3.486-1.796 5.555-1.984-2.049-22.666 3.586-40.734 14.282-51.949 2.698 13.473 1.827 32.04-.8 44.812 1.37-.352 2.56-.873 3.568-1.58-.504-19.814 5.392-33.215 14.274-43.627 2.628 11.87.688 27.364-1.579 38.071 2.244.131 3.066-1.162 5.16-1.19-.508-16.359 2.49-29.233 11.096-36.485 2.744 9.7 1.966 22.904 0 32.914 1.222-.238 2.064-.845 3.177-1.19.723-14.995 5.331-28.238 13.478-34.5.35 11.314-1.116 20.823-2.77 30.14 1.214.29 1.17-.685 2.38-.396 1.47-2.735 1.588-5.883 2.376-8.726 2.315-8.342 5.801-16.092 11.897-21.02 1.336 9.41-.533 19.035-3.173 25.775 1.57-.15 2.877-.555 3.96-1.183 1.07-11.235 4.78-19.814 11.51-25.378.505 8.572-.568 15.556-2.38 21.806.728.714 2.166-1.248 3.57-1.19.645-6.769 2.968-12.88 5.94-17.845.805-1.335 1.97-3.709 3.577-3.572.195 6.286-.245 11.92-1.595 16.654.818.533 2.712-1.234 3.968-1.58-1.406-7.504 1.57-14.014 5.154-17.845 1.595 3.427 2.333 7.722 1.991 13.088 3.588.022 1.992-5.02 2.373-8.73.393-3.76 1.538-7.252 3.571-8.328 1.44 3.183 2.527 6.726 2.772 11.105.396.751 1.602-1.009 2.381-1.188-1.73-5.58-.207-11.555 1.986-15.472 2.46 1.898 2.848 5.874 3.571 9.525 1.053-.269 1.51-1.14 2.373-1.588-1.126-3.759-2.648-10.009-.796-14.28.531-1.363 2.816 1.876 3.567 3.175 1.034 1.775 1.508 4.256 2.381 5.555 2.721-.815.775-3.743.8-5.945.036-2.8 1.2-5.204 1.582-7.54 3.111.591 3.552 3.852 4.364 6.74 2.584-4.554 5.14-9.145 9.123-12.297" style="fill:#fff;stroke:#000;stroke-width:8.18268;stroke-linecap:round;stroke-miterlimit:4;stroke-dasharray:none;stroke-opacity:1;paint-order:stroke fill markers" data-source="https://football-logos.cc"></path><!-- source: https://football-logos.cc --></svg>