<svg version="1.1" id="Layer_1" xmlns:x="ns_extend;" xmlns:i="ns_ai;" xmlns:graph="ns_graphs;" xmlns="http://www.w3.org/2000/svg" xmlns:xlink="http://www.w3.org/1999/xlink" x="0px" y="0px" viewBox="0 0 199.4 86.2" style="enable-background:new 0 0 199.4 86.2;" xml:space="preserve">
 <style type="text/css">
  .st0{fill:#360D3A;}
 </style>
 <metadata>
  <sfw xmlns="ns_sfw;">
   <slices>
   </slices>
   <sliceSourceBounds bottomLeftOrigin="true" height="86.2" width="199.4" x="-315.5" y="-309.5">
   </sliceSourceBounds>
  </sfw>
 </metadata>
 <g>
  <g>
   <g>
    <path class="st0" d="M78.5,42.5V14.4h8.8c5.8,0,10.1,3.5,10.1,9.4c0,6-4.2,9.6-10.1,9.6h-3.4v9.2H78.5z M83.9,28.1H87
				c2.7,0,4.7-1.5,4.7-4.3c0-2.8-2-4.2-4.7-4.2h-3.1V28.1z M169.9,73.5c-4,0-9-2.2-9-9.1v-9.9h5.1V64c0,3.2,1.4,4.6,3.9,4.6
				c2.3,0,3.9-1.6,3.9-4.6v-9.6h5.1v9.9C178.9,71.3,173.9,73.5,169.9,73.5 M126.3,73.5c-4.9,0-9.1-4.5-9.1-9.8
				c0-5.2,4.2-9.6,9.1-9.6c2.7,0,4.6,1,5.7,2.7l0.5-2.4h4.5V73h-4.5l-0.5-2.4C130.9,72.3,128.8,73.5,126.3,73.5 M127.3,58.8
				c-2.7,0-4.8,2.1-4.8,4.9c0,2.7,2.1,4.8,4.8,4.8c2.7,0,4.7-2.1,4.7-4.8C132.1,60.9,130,58.8,127.3,58.8 M160.6,24h5.1v18.5h-5.1
				V24z M163.2,21.5c-1.8,0-3.1-1.4-3.1-3.1c0-1.8,1.4-3.2,3.1-3.2c1.8,0,3.2,1.4,3.2,3.2C166.3,20.1,164.9,21.5,163.2,21.5
				 M153,31.6c0-2-1.1-3.3-2.8-3.3c-2,0-3,1.2-3,3.3v10.9h-5.1V31.6c0-2-1.1-3.3-2.8-3.3c-2,0-3,1.2-3,3.3v10.9h-5.1V24h4.5l0.5,2.4
				c0,0,1.1-2.9,4.5-2.9c2.1,0,3.9,0.9,5.1,2.8l0.1,0.2l0.1-0.2c1.8-2.6,4-2.8,5.3-2.8c3.9,0,6.6,3,6.6,7.2v11.8H153V31.6z
				 M188.3,42.5V24h4.4l0.5,2.7c0.8-1.7,2.5-2.9,4.7-2.9c0.5,0,1,0.1,1.4,0.2v4.9c-0.6-0.1-1.2-0.2-1.8-0.2c-2.5,0-4.2,1.5-4.2,4.5
				v9.3H188.3z M99.1,42.5V24h4.4l0.5,2.7c0.8-1.7,2.5-2.9,4.7-2.9c0.5,0,1,0.1,1.4,0.2v4.9c-0.6-0.1-1.2-0.2-1.8-0.2
				c-2.5,0-4.2,1.5-4.2,4.5v9.3H99.1z M78.5,73V45.5h5.4v22.3h11.8V73H78.5z M106.6,73.5c-5.7,0-9.9-3.9-9.9-9.7
				c0-5.2,3.8-9.8,9.7-9.8c4.5,0,9,3.4,9,9.7c0,0.5,0,1.1-0.1,1.8h-13.4c0.5,2.1,2.3,3.5,4.6,3.5c2.1,0,3.6-0.8,4.9-2.1l3.1,3.2
				C112.6,72.2,109.7,73.5,106.6,73.5 M106.3,58.5c-2.1,0-3.9,1.2-4.3,3.3h8.5C110.1,59.8,108.4,58.5,106.3,58.5 M190.5,73.5
				c-5.7,0-9.9-3.9-9.9-9.7c0-5.2,3.8-9.8,9.7-9.8c4.5,0,9,3.4,9,9.7c0,0.5,0,1.1-0.1,1.8h-13.4c0.5,2.1,2.3,3.5,4.6,3.5
				c2.1,0,3.6-0.8,4.9-2.1l3.1,3.2C196.5,72.2,193.6,73.5,190.5,73.5 M190.3,58.5c-2.1,0-3.9,1.2-4.3,3.3h8.5
				C194,59.8,192.3,58.5,190.3,58.5 M177.5,43c-5.7,0-9.9-3.9-9.9-9.7c0-5.2,3.8-9.8,9.7-9.8c4.5,0,9,3.4,9,9.7c0,0.5,0,1.1-0.1,1.8
				h-13.4c0.5,2.1,2.3,3.5,4.6,3.5c2.1,0,3.6-0.8,4.9-2.1l3.1,3.2C183.4,41.8,180.5,43,177.5,43 M177.2,28c-2.1,0-3.9,1.2-4.3,3.3
				h8.5C181,29.3,179.2,28,177.2,28 M120.3,43c-5.7,0-9.9-3.9-9.9-9.7c0-5.2,3.8-9.8,9.7-9.8c4.5,0,9,3.4,9,9.7c0,0.5,0,1.1-0.1,1.8
				h-13.4c0.5,2.1,2.3,3.5,4.6,3.5c2.1,0,3.6-0.8,4.9-2.1l3.1,3.2C126.2,41.8,123.4,43,120.3,43 M120,28c-2.1,0-3.9,1.2-4.3,3.3h8.5
				C123.8,29.3,122.1,28,120,28 M149,58.8c-2.7,0-4.8,2.1-4.8,4.9c0,2.7,2.1,4.8,4.8,4.8c2.7,0,4.8-2.1,4.8-4.8
				C153.8,60.9,151.6,58.8,149,58.8 M153.5,56.8l0.5-2.4h4.5v17.7c0,3.5-1,5.9-3.2,7.7c-1.7,1.3-4,2.3-6.8,2.3
				c-3.8,0-6.6-1.3-8.8-3.5l2.8-3.9c1.4,1.3,3.2,2.5,5.6,2.5c3.8,0,5.4-1.9,5.4-4.6v-1.3c-1.5,1.6-3.3,2.2-5.3,2.2
				c-5.2,0-9.3-4.3-9.3-9.8c0-5.4,4.2-9.6,9.4-9.6C150.5,54.2,152.4,55.2,153.5,56.8">
    </path>
   </g>
  </g>
  <path class="st0" d="M13.4,7.1c3.8,1.8,6.3,4,6.7,4.3c-0.2-1-0.9-5.7-1.4-8.6c2.2,1.5,7.4,5.1,9.1,6.3C28.4,7,30.9,0,30.9,0
		s4.3,7,5,8.1C36.8,7.2,42,1.4,43.3,0c0.3,3.3,0.5,8.1,0.6,8.7c0.3-0.3,2.3-3.1,5.6-5.7C48,5.8,47.4,9.7,47,12.9
		c-3.3-0.9-6.7-1.4-10.2-1.4c-6.8,0-13.2,1.8-18.8,5C17,13.4,15.5,9.6,13.4,7.1z M65.6,66.9l-3-3.3c-0.8,9-5.3,16.6-13.4,22L48,80.7
		c-6.9,5-18.6,8.1-28.8,2.4c1.3-6.4,2.3-12.9,0-20.7C13.6,71.1,8.6,74.5,8.6,74.5c-3.8-6.4-3.5-19.1-2.3-22.9L0,53.5
		c0-4.3,3.1-13.4,7.6-18.5l-3.8-0.6c2.7-5.5,6.6-10.1,11.6-13.7c-1.5,2.4-1.5,8.1,2.8,10.3c-1.8-3.2-2-7.1-0.2-9.2
		c1.9-2.1,5.1-1.3,7.1,0.3c-0.6-1.8-2.4-4-5-4.2c5-2.6,10.9-4,16.9-4c1.2,0,2.3,0.1,3.3,0.2c1.8,0.7,4.3,3.2,5.6,4.8
		c0,0,0.1-1.8-0.9-4c6.6,1.6,9.7,4.3,11,5.6c0.3,2.8,1.1,4.5,2.3,7.2c-2.1-2.3-7.5-6.2-10.1-7.1c0,0-0.3,2.4-1.1,3.6
		c-5.1-3.7-7.6-4.6-7.6-4.6c-5.7,0.6-9.2,2.8-11.2,4.5l1.7,1.4c-3.3,1-5.6,4-5.6,4c0,0.1,3,0.5,3,0.5s-0.3,3.5,4.1,5.7
		c3.8,1.8,9.1-0.4,14.2,1.6c-3.3-3.8-5.6-5.6-5.6-5.6s-1.3-0.3-2.3-0.3c-1.2,0-2.9,0.3-4.8-0.5c-0.9-0.3-2-1-2.8-1.5
		c0,0,2.3-2.4,5.8-2.9c0,0,3.1,0.8,5.6,2.7c1.6-1.6,3.3-1.5,3.3-1.5s-1.7,1.6-1.2,3.5c2.4,2.2,5.1,5.3,5.1,5.3
		c2.7-1.5,8.6-1.2,9.8,0.3c-1.5-2-3.8-3.6-5.5-5c-0.2-0.8-2.1-3.3-2.3-3.6c0,0,1.8,0.6,3.3,1.9c0.4-0.7,1.3-1.3,2.4-1.6
		c1.2,1,1.4,2.5,1.3,2.8c-0.5,0.7-1.1,0.9-1.1,0.9l2.8,3.1l0.3-2.3C66.6,42.2,70.2,53.1,65.6,66.9z M53.1,46.6v-4.8
		c0,0-2.2-0.7-4.5-2.5c-4.7,0.7-10.3,5.4-10.3,5.4s1.9,3.6,4,7.6C46,52.6,51.5,48,53.1,46.6z M57.8,55.4c0,0-0.3-2-2-3.8l-3.6,0.1
		c0,0-5,4.2-7.9,4.3c0,0,1.7,3.1,2.5,4.7c1.7-0.3,4.5-1.7,5.7-3c0,0,0.8,2.5,0.6,5.5C54.8,62,57.1,59.4,57.8,55.4z M59.3,39.3
		c-1.8,1.5-3.3,2.4-3.3,2.4v4.8c1.3,1.4,2.6,2.7,3.6,4.8C61.4,48.2,61,43.4,59.3,39.3z">
  </path>
 </g>
</svg>