<svg xmlns="http://www.w3.org/2000/svg" width="500" height="500"><metadata xmlns:fl="https://football-logos.cc/turkey/turkey-national-team">dl1_81d1b9798766fae3ff5fc036887a5111cd19a0923674af6dddbc2dfd57491d9d</metadata><!-- Source: https://football-logos.cc --><path d="M821.497 469.098c0 179.36-145.4 324.76-324.76 324.76s-324.76-145.4-324.76-324.76 145.4-324.76 324.76-324.76 324.76 145.4 324.76 324.76" style="fill:#e30a17;fill-opacity:1;stroke:none" transform="translate(-128.564 -107.5)scale(.7621)" data-source="https://football-logos.cc"></path><path d="M425 200c-110.457 0-200 89.543-200 200s89.543 200 200 200c71.169 0 133.646-37.167 169.094-93.156C564.802 539.477 522.304 560 475 560c-88.366 0-160-71.634-160-160s71.634-160 160-160c47.303 0 89.802 20.523 119.094 53.156C558.646 237.167 496.169 200 425 200" style="fill:#fff" transform="translate(-79.536 -16.498)scale(.66624)" data-source="https://football-logos.cc"></path><path d="M764.235 341.221 583.334 400l180.901 58.779-111.804-153.885v190.212z" style="fill:#fff" transform="translate(-79.536 -16.498)scale(.66624)" data-source="https://football-logos.cc"></path><!-- source: https://football-logos.cc --></svg>